<?xml version="1.0" standalone="no"?>
<!DOCTYPE svg PUBLIC "-//W3C//DTD SVG 1.1//EN" "http://www.w3.org/Graphics/SVG/1.1/DTD/svg11.dtd" >
<svg xmlns="http://www.w3.org/2000/svg">
<metadata>
This is a custom SVG webfont generated by Font Squirrel.
Copyright   : Copyright c 2009 by Ben Jones All rights reserved
Foundry     : Ben Jones
</metadata>
<defs>
<font id="EksjaExtremesRegular" horiz-adv-x="1304" >
<font-face units-per-em="2048" ascent="1546" descent="-502" />
<missing-glyph horiz-adv-x="761" />
<glyph unicode=" "  horiz-adv-x="761" />
<glyph unicode="&#x09;" horiz-adv-x="761" />
<glyph unicode="&#xa0;" horiz-adv-x="761" />
<glyph unicode="!" horiz-adv-x="505" d="M166 59q0 35 24.5 59.5t59.5 24.5t59.5 -24.5t24.5 -59.5q0 -33 -24.5 -56t-59.5 -23t-59.5 23t-24.5 56zM209 1552q37 6 63.5 6.5t26.5 -24.5l-20 -1206q-18 -4 -33 -4q-18 0 -19 14z" />
<glyph unicode="&#x22;" horiz-adv-x="552" d="M90 1063v432q53 16 84 16q16 0 22.5 -5t4.5 -15l-60 -432q-20 -6 -37 -6q-14 0 -14 10zM350 1063v432q53 16 86 16q14 0 20.5 -5t4.5 -15l-60 -432q-20 -6 -36 -6q-15 0 -15 10z" />
<glyph unicode="#" d="M113 451v67h237l78 434h-231v68h241l80 455h66l-80 -455h391l80 455h67l-81 -455h229v-68h-238l-78 -434h232v-67h-244l-78 -451h-65l78 451h-391l-78 -451h-68l80 451h-227zM418 518h391l76 434h-391z" />
<glyph unicode="$" d="M162 51v256q27 4 47 4t20 -20v-189q205 -57 389 -57v698q-88 31 -136 49.5t-118.5 55.5t-106.5 73.5t-63.5 94t-27.5 127.5q0 156 112.5 249t339.5 101v158h66v-156q197 -2 379 -78v-250q-25 -4 -45.5 -4t-20.5 21v184q-139 57 -313 64v-644q84 -29 137 -50t121 -58 t106.5 -77t66.5 -100.5t28 -133.5q0 -365 -459 -387v-170h-66v168q-233 1 -456 71zM240 1143q0 -125 96 -194.5t282 -135.5v617q-378 -17 -378 -287zM684 45q385 23 385 322q0 74 -29.5 130t-90 98t-119 68.5t-146.5 57.5v-676z" />
<glyph unicode="%" horiz-adv-x="1755" d="M20 1036q0 207 103.5 333t265.5 126q158 0 260.5 -126t102.5 -333q0 -201 -102.5 -318.5t-260.5 -117.5q-162 0 -265.5 116.5t-103.5 319.5zM92 1036q0 -168 86 -269t211 -101q123 0 206 101t83 269q0 180 -81 287t-208 107q-129 0 -213 -107t-84 -287zM315 0l1057 1520 l53 -39l-1058 -1520zM1004 416q0 207 103 332.5t265 125.5q158 0 260.5 -125.5t102.5 -332.5q0 -201 -102.5 -318.5t-260.5 -117.5q-162 0 -265 117.5t-103 318.5zM1075 416q0 -168 86 -268.5t211 -100.5q123 0 206 100.5t83 268.5q0 182 -80 287.5t-209 105.5t-213 -106.5 t-84 -286.5z" />
<glyph unicode="&#x26;" horiz-adv-x="1695" d="M121 371q0 72 23.5 135t54 105t88 88t98.5 71t113 66l-92 114q-102 129 -103 258q0 125 88 209t227 84q137 0 218.5 -77.5t81.5 -200.5q0 -141 -82 -230.5t-236 -177.5l451 -561q119 127 186.5 309t71.5 385h-158q-2 27 -2 41.5t12 14.5h363q14 0 14 -15l-2 -41h-158 q-2 -219 -78.5 -414.5t-209.5 -330.5l8 -8q117 -147 268 -148q84 0 182 47l27 -55q-113 -59 -209 -59q-180 0 -319 172l-5 4q-207 -176 -464 -176q-213 0 -335 104.5t-122 286.5zM195 371q0 -154 104 -239t279 -85q242 0 421 162l-458 573q-84 -47 -131.5 -77.5t-104.5 -82 t-83.5 -113.5t-26.5 -138zM379 1208q0 -117 100 -243l78 -99q139 78 214 157t75 198q0 92 -62.5 152.5t-165.5 60.5q-104 0 -171.5 -63t-67.5 -163z" />
<glyph unicode="'" horiz-adv-x="292" d="M90 1063v432q53 16 84 16q16 0 22.5 -5t4.5 -15l-60 -432q-20 -6 -37 -6q-14 0 -14 10z" />
<glyph unicode="(" horiz-adv-x="546" d="M100 567q0 334 94.5 566.5t303.5 506.5l49 -38q-201 -264 -289 -499t-88 -536t88 -535.5t289 -496.5l-49 -39q-205 260 -301.5 498.5t-96.5 572.5z" />
<glyph unicode=")" horiz-adv-x="546" d="M0 -465q199 262 287 496.5t88 535.5t-88 535.5t-287 499.5l49 38q209 -274 303 -506.5t94 -566.5t-96 -572.5t-301 -498.5z" />
<glyph unicode="*" horiz-adv-x="901" d="M135 1364l33 55l268 -137l-14 299q37 10 63 12q20 0 21 -14l-25 -291l248 160q29 -29 41 -51q10 -18 0 -25l-258 -121l266 -98q12 -2 4 -20l-34 -56l-267 135l15 -294q-39 -10 -66 -13q-18 0 -18 15l22 286l-244 -155q-31 29 -43 49q-12 16 0 22l259 123l-267 96 q-12 7 -4 23z" />
<glyph unicode="+" d="M145 547v65h471v453h70v-453h471v-65h-471v-455h-70v455h-471z" />
<glyph unicode="," horiz-adv-x="407" d="M121 -162q43 59 54 109.5t11 158.5q0 18 21 19l80 -10q0 -92 -28 -163t-99 -149z" />
<glyph unicode="-" horiz-adv-x="841" d="M100 594v70h641v-70h-641z" />
<glyph unicode="." horiz-adv-x="407" d="M121 59q0 35 23.5 59.5t58.5 24.5t59.5 -24.5t24.5 -59.5q0 -33 -24.5 -56t-59.5 -23q-33 0 -57.5 23t-24.5 56z" />
<glyph unicode="/" horiz-adv-x="802" d="M57 -59l637 1669l62 -23l-631 -1669z" />
<glyph unicode="0" d="M92 727q0 358 149.5 563t409.5 205q262 0 411.5 -205t149.5 -563q0 -354 -153.5 -550.5t-407.5 -196.5q-252 0 -405.5 196.5t-153.5 550.5zM162 727q0 -328 135 -504t354 -176t354.5 176t135.5 504q0 330 -132 516.5t-357.5 186.5t-357.5 -186.5t-132 -516.5z" />
<glyph unicode="1" d="M369 1339q-10 18 4 27l252 129h77v-1440h246q14 0 15 -12l-2 -43h-588q-2 29 -2 43q0 12 14 12h246v1368l-242 -118q-14 20 -20 34z" />
<glyph unicode="2" d="M133 49q0 14 8 23l521 483q248 229 328.5 355t80.5 241q0 281 -407 281q-197 0 -390 -80v-146q0 -20 -20 -20l-47 4v209q246 96 457 96q244 0 363.5 -90t119.5 -254q0 -133 -83 -264t-351 -377l-486 -449h879v205q0 20 20 21l45 -4v-283h-1034q-4 35 -4 49z" />
<glyph unicode="3" d="M166 76v209q29 4 49.5 4t20.5 -21v-143q156 -80 364 -80q213 0 341 91t128 274q0 162 -128 245.5t-351 83.5h-62v66h115q162 0 283 89t121 243q0 147 -110 221t-308 74q-193 0 -367 -80v-146q0 -20 -18 -20l-49 4v209q238 96 434 96q487 0 487 -358q0 -129 -81 -224.5 t-224 -142.5q147 -29 237.5 -126t90.5 -234q0 -209 -144.5 -319.5t-394.5 -110.5q-203 0 -434 96z" />
<glyph unicode="4" d="M96 442q0 12 8 23l738 1028h94v-1036h256q16 0 16 -15l-2 -47h-270v-340h143q14 0 15 -12l-2 -43h-426q-2 29 -2 43q0 12 14 12h184v340h-762q-4 33 -4 47zM182 457h680v952z" />
<glyph unicode="5" d="M156 82v209q29 4 49 4t20 -21v-143q178 -84 365 -84q209 0 345 114.5t136 325.5q0 201 -115.5 298.5t-298.5 97.5q-176 0 -368 -92l-51 38l86 629q4 16 20 17h729q16 0 17 -17l-3 -45h-704l-74 -543q174 82 353 82q217 0 351 -116.5t134 -348.5q0 -238 -153.5 -372.5 t-403.5 -134.5q-188 0 -434 102z" />
<glyph unicode="6" d="M145 641q0 406 171 630t487 224q135 0 270 -47v-209q-27 -4 -47 -4t-20 18v146q-76 33 -203 33q-262 0 -412.5 -181.5t-171.5 -511.5q98 84 223 137.5t252 53.5q215 0 340 -128t125 -339q0 -209 -135 -346t-358.5 -137t-372 168.5t-148.5 492.5zM217 641 q0 -287 129 -440.5t326 -153.5q182 0 298.5 113.5t116.5 298.5q0 186 -109.5 294.5t-283.5 108.5q-260 0 -477 -211v-10z" />
<glyph unicode="7" d="M176 1253v222h934q18 0 18 -19l-4 -55q-328 -346 -467 -643t-139 -703v-55h-72v55q0 283 72 519.5t198 428t337 410.5h-809v-145q0 -18 -21 -19z" />
<glyph unicode="8" d="M150 356q0 88 32.5 157t101 120t128 83t157.5 70q-166 70 -256 153t-90 220q0 147 117 240.5t311 93.5q197 0 313.5 -93t116.5 -241q0 -137 -90 -219t-258 -154q98 -39 158.5 -70.5t128 -82.5t100.5 -120t33 -157q0 -164 -138 -270t-364 -106q-223 0 -362 106t-139 270z M219 356q0 -143 123 -226t309 -83q188 0 311 83t123 226q0 55 -15 101.5t-51 84.5t-66.5 63.5t-93 56t-98.5 46t-110 44.5q-76 -31 -109.5 -45.5t-96 -45t-93 -56t-66.5 -63.5t-51.5 -84.5t-15.5 -101.5zM295 1159q0 -123 91 -196.5t265 -143.5q176 70 267.5 143.5 t91.5 196.5q0 117 -97.5 192.5t-261.5 75.5t-260 -75.5t-96 -192.5z" />
<glyph unicode="9" d="M145 1012q0 209 139.5 346t362.5 137t367.5 -171t144.5 -501q0 -410 -159.5 -626.5t-438.5 -216.5q-117 0 -270 43v208q29 4 49 5q18 0 18 -21v-145q96 -25 203 -25q223 0 363.5 172t158.5 502q-211 -172 -452 -172q-217 0 -351.5 129t-134.5 336zM217 1015.5 q0 -184.5 119 -294t295 -109.5q246 0 456 193v18q0 297 -125.5 452t-320.5 155q-184 0 -304 -115t-120 -299.5z" />
<glyph unicode=":" horiz-adv-x="407" d="M121 174q0 35 23.5 58.5t58.5 23.5t59.5 -23.5t24.5 -58.5q0 -33 -24.5 -56.5t-59.5 -23.5q-33 0 -57.5 23.5t-24.5 56.5zM121 823.5q0 32.5 23.5 57t58.5 24.5t59.5 -23.5t24.5 -58.5q0 -33 -24.5 -56.5t-59.5 -23.5t-58.5 24t-23.5 56.5z" />
<glyph unicode=";" horiz-adv-x="448" d="M121 -162q43 59 54 109.5t11 158.5q0 18 21 19l80 -10q0 -92 -28 -163t-99 -149zM160 803q0 35 24.5 58.5t59.5 23.5t59.5 -23.5t24.5 -58.5q0 -33 -24.5 -56.5t-59.5 -23.5t-59.5 23.5t-24.5 56.5z" />
<glyph unicode="&#x3c;" d="M178 514v66l948 483v-76l-868 -438l868 -445v-73z" />
<glyph unicode="=" d="M154 346v66h995v-66h-995zM154 727v66h995v-66h-995z" />
<glyph unicode="&#x3e;" d="M178 31v73l869 445l-869 438v76l948 -483v-66z" />
<glyph unicode="?" horiz-adv-x="1019" d="M90 1208v209q231 88 420 88q205 0 312.5 -83t107.5 -224q0 -96 -45 -172t-109.5 -130t-129 -109.5t-109.5 -142.5t-45 -198v-122q0 -14 -21 -15l-53 6v119q0 123 45 218.5t108.5 154.5t128 112.5t109.5 123t45 155.5q0 115 -86 179.5t-258 64.5q-186 0 -352 -72v-145 q0 -20 -19 -21zM377 59q0 35 24.5 59.5t57.5 24.5q35 0 60.5 -24.5t25.5 -59.5q0 -33 -25.5 -56t-60.5 -23q-33 0 -57.5 23t-24.5 56z" />
<glyph unicode="@" horiz-adv-x="2023" d="M119 479q0 399 264 652t659 253q377 0 619 -224t242 -576q0 -264 -113 -424t-311 -160h-88v219q-80 -106 -195 -172.5t-254 -66.5q-184 0 -311 118.5t-127 360.5q0 258 161.5 411.5t407.5 153.5q193 0 389 -80v-889h17q152 0 252 137.5t100 391.5q0 322 -222.5 530.5 t-566.5 208.5q-365 0 -609.5 -238.5t-244.5 -605t229.5 -589t612.5 -222.5q203 0 363 58l22 -60q-166 -61 -385 -61q-410 0 -660.5 232t-250.5 642zM578 465q0 -217 107.5 -317.5t256.5 -100.5q258 0 449 275v575q-158 59 -310 59q-225 0 -364 -133t-139 -358z" />
<glyph unicode="A" horiz-adv-x="1609" d="M41 43q0 12 12 12h156l530 1364h-221q-2 29 -2 41q0 14 14 15h322l549 -1420h153q14 0 15 -12l-2 -43h-428q-2 29 -2 43q0 12 14 12h172l-174 451h-688l-174 -451h172q14 0 14 -12l-2 -43h-428q-2 29 -2 43zM487 571h637l-317 826z" />
<glyph unicode="B" horiz-adv-x="1497" d="M223 43q0 12 15 12h163v1364h-176q-2 29 -2 41q0 14 15 15h530q508 0 508 -351q0 -127 -76 -213t-205 -118q391 -59 391 -375q0 -418 -638 -418h-523q-2 29 -2 43zM475 63h273q289 0 427 85t138 268q0 336 -553 336h-285v-689zM475 817h283q225 0 334.5 90t109.5 217 q0 287 -434 287h-293v-594z" />
<glyph unicode="C" horiz-adv-x="1482" d="M180 725q0 344 200 556t552 212q213 0 422 -72v-229q-27 -4 -47.5 -4t-20.5 20v160q-158 59 -354 59q-322 0 -500 -196.5t-178 -505.5t174 -493.5t487 -184.5q199 0 392 72v184q0 20 20 21l45 -5v-249q-250 -90 -459 -90q-346 0 -539.5 201.5t-193.5 543.5z" />
<glyph unicode="D" horiz-adv-x="1761" d="M223 43q0 12 15 12h163v1364h-176q-2 29 -2 41q0 14 15 15h448q252 0 431 -55.5t277.5 -159t142.5 -230.5t44 -289q0 -348 -221 -544.5t-674 -196.5h-461q-2 29 -2 43zM477 63h209q414 0 617.5 180.5t203.5 497.5q0 150 -38.5 264.5t-129 210t-255 145.5t-398.5 50h-209 v-1348z" />
<glyph unicode="E" horiz-adv-x="1458" d="M223 43q0 12 15 12h163v1364h-176q-2 29 -2 41q0 14 15 15h1085v-244q-27 -4 -47.5 -4t-20.5 20v164h-780v-606h580v-64h-580v-678h807v187q0 18 21 18l47 -4v-264h-1125q-2 29 -2 43z" />
<glyph unicode="F" horiz-adv-x="1415" d="M223 43q0 12 15 12h163v1364h-176q-2 29 -2 41q0 14 15 15h1067v-244q-27 -4 -48 -4q-18 0 -18 20v164h-764v-686h580v-66h-580v-604h225q14 0 15 -12l-2 -43h-488q-2 29 -2 43z" />
<glyph unicode="G" horiz-adv-x="1554" d="M180 725q0 344 200 556t552 212q213 0 422 -72v-229q-27 -4 -47.5 -4t-20.5 20v160q-158 59 -354 59q-322 0 -500 -196.5t-178 -505.5t174 -493.5t487 -184.5q199 0 392 72v446h-351q-2 33 -2 49.5t17 16.5h401v-557q-238 -94 -459 -94q-346 0 -539.5 201.5t-193.5 543.5 z" />
<glyph unicode="H" horiz-adv-x="1886" d="M223 43q0 12 15 12h163v1364h-176q-2 29 -2 41q0 14 15 15h403q12 0 12 -15l-2 -41h-176v-618h936v618h-176q-2 29 -2 41q0 14 14 15h404q12 0 12 -15l-2 -41h-176v-1364h166q12 0 12 -12l-2 -43h-426q-2 29 -2 43q0 12 14 12h164v682h-936v-682h166q12 0 12 -12l-2 -43 h-426q-2 29 -2 43z" />
<glyph unicode="I" horiz-adv-x="876" d="M223 43q0 12 15 12h163v1364h-176q-2 29 -2 41q0 14 15 15h403q12 0 12 -15l-2 -41h-176v-1364h166q12 0 12 -12l-2 -43h-426q-2 29 -2 43z" />
<glyph unicode="J" horiz-adv-x="1036" d="M100 25v211q29 4 50 4q18 0 18 -21v-143q78 -27 166 -27q135 0 221 83t86 263v1024h-258q-2 29 -2 41q0 14 14 15h484q14 0 14 -15l-2 -41h-176v-1024q0 -209 -100.5 -312t-280.5 -103q-115 0 -234 45z" />
<glyph unicode="K" horiz-adv-x="1654" d="M223 43q0 12 15 12h163v1364h-176q-2 29 -2 41q0 14 15 15h403q12 0 12 -15l-2 -41h-176v-772l791 772h-191q-2 29 -2 41q0 14 14 15h431q14 0 14 -15l-2 -41h-168l-592 -579l674 -785h158q14 0 14 -12l-2 -43h-447q-2 29 -2 43q0 12 15 12h168l-629 733l-244 -237v-496 h166q12 0 12 -12l-2 -43h-426q-2 29 -2 43z" />
<glyph unicode="L" horiz-adv-x="1454" d="M223 43q0 12 15 12h163v1364h-176q-2 29 -2 41q0 14 15 15h403q12 0 12 -15l-2 -41h-176v-1356h873v205q0 20 18 21l47 -4v-285h-1188q-2 29 -2 43z" />
<glyph unicode="M" horiz-adv-x="2404" d="M223 43q0 12 15 12h163v1364h-176q-2 29 -2 41q0 14 15 15h282l684 -1387l682 1387h281q14 0 14 -15l-2 -41h-176v-1364h164q14 0 14 -12l-2 -43h-426q-2 29 -2 43q0 12 12 12h166v1348l-690 -1403h-74l-690 1403v-1348h166q12 0 12 -12l-2 -43h-426q-2 29 -2 43z" />
<glyph unicode="N" horiz-adv-x="1845" d="M223 43q0 12 15 12h163v1364h-176q-2 29 -2 41q0 14 15 15h251l922 -1360v1304h-176q-2 29 -2 41q0 14 14 15h404q12 0 12 -15l-2 -41h-176v-1419h-86l-924 1368v-1313h166q12 0 12 -12l-2 -43h-426q-2 29 -2 43z" />
<glyph unicode="O" horiz-adv-x="1785" d="M180 717q0 336 193.5 556t519.5 220t519.5 -219t193.5 -557q0 -324 -197 -530.5t-516.5 -206.5t-516 206.5t-196.5 530.5zM254 717q0 -299 180 -484.5t458.5 -185.5t459 185.5t180.5 484.5q0 307 -172 508.5t-467 201.5t-467 -201.5t-172 -508.5z" />
<glyph unicode="P" horiz-adv-x="1523" d="M223 43q0 12 15 12h163v1364h-176q-2 29 -2 41q0 14 15 15h534q272 0 411.5 -121t139.5 -340q0 -225 -141.5 -363.5t-407.5 -138.5q-150 0 -299 39v-496h225q14 0 15 -12l-2 -43h-488q-2 29 -2 43zM475 623q143 -43 299 -43q229 0 351 118.5t122 315.5 q0 190 -119.5 293.5t-359.5 103.5h-293v-788z" />
<glyph unicode="Q" horiz-adv-x="1785" d="M180 717q0 336 193.5 556t519.5 220t519.5 -219t193.5 -557q0 -285 -156 -482.5t-418 -242.5q98 -248 326 -248q74 0 131 25v147q0 20 20 21l47 -5v-211q-111 -45 -204 -45q-137 0 -245 81t-151 225q-18 -2 -63 -2q-319 0 -516 206.5t-197 530.5zM254 717 q0 -299 180 -484.5t458.5 -185.5t459 185.5t180.5 484.5q0 307 -172 508.5t-467 201.5t-467 -201.5t-172 -508.5z" />
<glyph unicode="R" horiz-adv-x="1527" d="M223 43q0 12 15 12h163v1364h-176q-2 29 -2 41q0 14 15 15h495q508 0 508 -383q0 -170 -110.5 -275.5t-303.5 -128.5q115 -39 187.5 -130t140.5 -275l86 -228h131q14 0 14 -12l-2 -43h-200l-97 260q-90 244 -212.5 332t-346.5 88h-53v-625h166q12 0 12 -12l-2 -43h-426 q-2 29 -2 43zM475 745h256q217 0 327.5 98.5t110.5 248.5q0 319 -440 319h-254v-666z" />
<glyph unicode="S" horiz-adv-x="1460" d="M201 51v256q27 4 47 4q18 0 18 -20v-189q209 -57 436 -57q246 0 366 82t120 221q0 123 -99.5 209t-240.5 136t-282.5 102.5t-241 143.5t-99.5 222q0 158 140.5 246t396.5 88q252 0 440 -78v-250q-27 -4 -47 -4q-18 0 -18 21v184q-55 25 -164 44.5t-211 19.5 q-233 0 -349 -71t-116 -200q0 -96 71.5 -168.5t178 -113.5t231.5 -90.5t231.5 -97.5t178.5 -136t72 -205q0 -172 -137.5 -271t-420.5 -99q-265 -1 -501 71z" />
<glyph unicode="T" horiz-adv-x="1470" d="M41 1210v265h1391v-265q-27 -4 -47.5 -4t-20.5 21v184h-592v-1356h225q14 0 15 -12l-2 -43h-549q-2 29 -2 43q0 12 14 12h225v1356h-592v-184q0 -20 -20 -21z" />
<glyph unicode="U" horiz-adv-x="1847" d="M201 1460q0 14 14 15h383q14 0 14 -15l-2 -41h-176v-913q0 -213 129 -335t350.5 -122t350.5 122t129 335v913h-176q-2 29 -3 41q0 14 15 15h403q14 0 15 -15l-2 -41h-179v-907q0 -250 -145 -391t-410 -141q-266 0 -409.5 141t-143.5 391v907h-155q-2 29 -2 41z" />
<glyph unicode="V" horiz-adv-x="1591" d="M41 1460q0 14 12 15h406q14 0 14 -15l-2 -41h-188l514 -1358l516 1358h-191q-2 29 -2 41q0 14 15 15h403q14 0 14 -15l-2 -41h-159l-553 -1454h-82l-553 1454h-160q-2 29 -2 41z" />
<glyph unicode="W" horiz-adv-x="2420" d="M41 1460q0 14 12 15h406q14 0 14 -15l-2 -41h-188l411 -1356l477 1412h82l457 -1412l434 1356h-190q-2 29 -2 41q0 14 12 15h401q14 0 15 -15l-2 -41h-158l-467 -1454h-88l-455 1399l-473 -1399h-86l-448 1454h-160q-2 29 -2 41z" />
<glyph unicode="X" horiz-adv-x="1699" d="M111 43q0 12 14 12h156l520 705l-482 659h-161q-2 29 -2 41q0 14 14 15h410q14 0 14 -15l-2 -41h-189l445 -604l442 604h-188q-2 29 -2 41q0 14 14 15h410q14 0 14 -15l-2 -41h-162l-477 -651l522 -713h156q14 0 14 -12l-2 -43h-434v43q0 12 12 12h170l-485 660 l-485 -660h170q14 0 14 -12l-2 -43h-434q-2 29 -2 43z" />
<glyph unicode="Y" horiz-adv-x="1464" d="M41 1460q0 14 12 15h408q14 0 14 -15l-2 -41h-188l450 -671l449 671h-191q-2 29 -2 41q0 14 15 15h405q14 0 14 -15l-2 -41h-159l-494 -737v-627h225q14 0 15 -12l-2 -43h-549q-2 29 -2 43q0 12 14 12h225v627l-493 737h-160q-2 29 -2 41z" />
<glyph unicode="Z" horiz-adv-x="1439" d="M111 14l2 43l1108 1354h-1000v-143q0 -18 -20 -19l-47 4v222h1149q14 0 14 -15l-2 -43l-1108 -1354h1055v144q0 20 20 20l47 -4v-223h-1204q-14 0 -14 14z" />
<glyph unicode="[" horiz-adv-x="514" d="M100 -502v2048h400q14 0 14 -14l-2 -47h-340v-1927h328q14 0 14 -13l-2 -47h-412z" />
<glyph unicode="\" horiz-adv-x="802" d="M57 1587l64 23l635 -1669l-66 -23z" />
<glyph unicode="]" horiz-adv-x="514" d="M0 -455q0 12 14 13h328v1927h-340q-2 33 -2 47t14 14h400v-2048h-412q-2 33 -2 47z" />
<glyph unicode="^" d="M135 528l483 947h66l483 -947h-73l-443 867l-440 -867h-76z" />
<glyph unicode="_" horiz-adv-x="1042" d="M0 0h1042v-61h-1042v61z" />
<glyph unicode="`" horiz-adv-x="722" d="M100 1462q0 33 27 21l506 -230q4 -18 4 -47q0 -16 -16 -10l-512 199q-9 40 -9 67z" />
<glyph unicode="a" horiz-adv-x="1114" d="M80 266q0 162 122 252t326 90q141 0 293 -47v29q0 213 -71.5 289.5t-217.5 76.5q-147 0 -292 -53v-123q0 -20 -21 -20l-47 4v188q195 72 360 72q184 0 272.5 -95t88.5 -339v-535h145q14 0 15 -12l-2 -43h-230v113q-211 -133 -403 -133q-158 0 -248 75.5t-90 210.5z M156 266q0 -109 71.5 -164t190.5 -55q205 0 403 148v301q-156 47 -293 47q-174 0 -273 -75t-99 -202z" />
<glyph unicode="b" horiz-adv-x="1345" d="M92 1528q0 18 14 18h240v-766q268 244 483 244q395 0 396 -473q0 -281 -152.5 -426t-404.5 -145q-215 0 -396 69v1440h-178q-2 25 -2 39zM346 96q133 -49 305 -49q229 0 364.5 123t135.5 375q0 221 -90 315t-232 94q-219 0 -483 -266v-592z" />
<glyph unicode="c" horiz-adv-x="1050" d="M121 487q0 254 143.5 395.5t370.5 141.5q158 0 299 -63v-193q-27 -4 -47.5 -4t-20.5 20v131q-86 41 -231 41q-201 0 -321.5 -125.5t-120.5 -343.5q0 -225 116.5 -331.5t286.5 -106.5q139 0 326 96l28 -59q-188 -106 -354 -106q-205 0 -340 125.5t-135 381.5z" />
<glyph unicode="d" horiz-adv-x="1331" d="M121 459q0 260 165 412.5t425 152.5q158 0 297 -53v518h-179q-2 25 -2 39q0 18 15 18h237v-1491h146q14 0 14 -12l-2 -43h-229v182q-104 -104 -209 -153t-234 -49q-190 0 -317 124t-127 355zM195 465q0 -207 108.5 -311.5t261.5 -104.5q238 0 443 223v629 q-129 57 -308 57q-215 0 -360 -134t-145 -359z" />
<glyph unicode="e" horiz-adv-x="1064" d="M121 492q0 248 134 390t329 142q184 0 282.5 -114.5t98.5 -323.5q0 -49 -7 -105h-763q2 -221 115.5 -326.5t269.5 -105.5q88 0 157.5 26.5t165.5 94.5l41 -55q-178 -135 -364 -135q-190 0 -324.5 127t-134.5 385zM197 545h692q2 16 2 51q0 174 -80 267t-227 93 q-154 0 -263.5 -108t-123.5 -303z" />
<glyph unicode="f" horiz-adv-x="860" d="M92 43q0 12 14 12h144v889h-156q-2 31 -2 45.5t14 14.5h144v108q0 223 107.5 333.5t275.5 110.5q133 0 227 -43v-167q-25 -4 -45 -4.5t-20 18.5v106q-61 27 -158 27q-141 0 -227 -90t-86 -291v-108h335q14 0 15 -15l-2 -45h-348v-889h202q14 0 15 -12l-2 -43h-445 q-2 29 -2 43z" />
<glyph unicode="g" horiz-adv-x="1159" d="M88 -186q0 98 67.5 175t192.5 99q-135 33 -135 152q0 55 40 98t116 61q-90 29 -145.5 110t-55.5 181q0 147 101.5 241.5t279.5 94.5q186 0 293 -111q127 111 245 111q23 0 23 -25l-8 -57q-139 0 -230 -70q53 -78 54 -184q0 -141 -105.5 -235.5t-271.5 -94.5 q-268 0 -268 -120q0 -117 231 -117h143q201 0 293 -77t92 -208q0 -152 -138 -245t-367 -93q-205 0 -326 84.5t-121 229.5zM162 -186q0 -115 102.5 -181.5t270.5 -66.5q195 0 312.5 73.5t117.5 198.5q0 217 -301 217h-146q-188 0 -272 -67.5t-84 -173.5zM244 690 q0 -117 85 -190.5t220 -73.5q133 0 217 73.5t84 190.5q0 123 -79 197t-222 74q-145 0 -225 -74t-80 -197z" />
<glyph unicode="h" horiz-adv-x="1433" d="M92 1532q0 14 14 14h240v-762q172 129 295 184.5t242 55.5q150 0 234.5 -89t84.5 -312v-568h146q12 0 12 -12l-2 -43h-385q-2 29 -2 43q0 12 14 12h145v559q0 188 -66.5 265t-182.5 77q-233 0 -535 -247v-654h143q14 0 15 -12l-2 -43h-385q-2 29 -2 43q0 12 14 12h143 v1434h-178q-2 29 -2 43z" />
<glyph unicode="i" horiz-adv-x="573" d="M92 43q0 12 14 12h144v893h-156q-2 27 -2 41.5t14 14.5h218v-949h143q14 0 14 -12l-2 -43h-385q-2 29 -2 43zM174 1462q0 33 22.5 54.5t53.5 21.5t53.5 -21.5t22.5 -54.5q0 -29 -22.5 -50t-53.5 -21t-53.5 21t-22.5 50z" />
<glyph unicode="j" horiz-adv-x="573" d="M-199 -260q29 4 47 4q20 0 21 -20v-142q61 -16 129 -16q252 0 252 338v1044h-156q-2 27 -2 41.5t14 14.5h218v-1100q0 -401 -326 -402q-115 0 -197 29v209zM180 1462q0 33 22.5 54.5t51.5 21.5q33 0 55.5 -21.5t22.5 -54.5q0 -29 -22.5 -50t-55.5 -21q-29 0 -51.5 21 t-22.5 50z" />
<glyph unicode="k" horiz-adv-x="1255" d="M92 1528q0 18 14 18h240v-1128l574 530h-168v41q0 14 12 15h395q14 0 15 -15l-3 -41h-147l-387 -354l430 -539h135q14 0 15 -12l-3 -43h-417q-2 29 -2 43q0 12 14 12h160l-387 490l-236 -217v-273h143q14 0 15 -12l-2 -43h-385q-2 29 -2 43q0 12 14 12h143v1434h-178 q-2 25 -2 39z" />
<glyph unicode="l" horiz-adv-x="595" d="M92 1528q0 18 14 18h240v-1491h143q14 0 15 -12l-2 -43h-385q-2 29 -2 43q0 12 14 12h143v1434h-178q-2 25 -2 39z" />
<glyph unicode="m" horiz-adv-x="2035" d="M92 43q0 12 14 12h144v893h-156q-2 27 -2 41.5t14 14.5h218v-205q129 121 226 173t218 52q225 0 287 -215q117 104 216 159.5t220 55.5q150 0 231.5 -98.5t81.5 -294.5v-576h146q12 0 12 -12l-2 -43h-385q-2 29 -2 43q0 12 14 12h146v551q0 188 -65.5 269t-186.5 81 q-188 0 -410 -211q8 -74 8 -114v-576h146q14 0 14 -12l-2 -43h-385q-2 29 -2 43q0 12 12 12h146v551q0 188 -64.5 269t-185.5 81q-203 0 -434 -237v-664h143q14 0 14 -12l-2 -43h-385q-2 29 -2 43z" />
<glyph unicode="n" horiz-adv-x="1411" d="M92 43q0 12 14 12h144v893h-156q-2 27 -2 41.5t14 14.5h218v-220q172 129 294.5 184.5t241.5 55.5q319 0 320 -401v-568h145q14 0 14 -12l-2 -43h-385q-2 29 -2 43q0 12 13 12h145v559q0 188 -66.5 265t-183.5 77q-233 0 -534 -247v-654h143q14 0 14 -12l-2 -43h-385 q-2 29 -2 43z" />
<glyph unicode="o" horiz-adv-x="1226" d="M121 487q0 233 132 385t359.5 152t360.5 -150.5t133 -386.5q0 -223 -136 -365t-357.5 -142t-356.5 142t-135 365zM193 487q0 -195 118.5 -317.5t301 -122.5t301 122t118.5 318q0 205 -112.5 337t-307.5 132q-193 0 -306 -134t-113 -335z" />
<glyph unicode="p" horiz-adv-x="1323" d="M92 -459q0 12 14 13h144v1394h-156q-2 27 -2 41.5t14 14.5h218v-220q250 240 479 240q172 0 285.5 -114.5t113.5 -354.5q0 -289 -154.5 -432t-392.5 -143q-174 0 -331 69v-495h204q14 0 15 -13l-2 -43h-447q-2 29 -2 43zM324 121q147 -74 331 -74q203 0 338 125t135 383 q0 209 -95 305t-234 96q-225 0 -475 -258v-577z" />
<glyph unicode="q" horiz-adv-x="1331" d="M121 459q0 258 161.5 411.5t407.5 153.5q193 0 389 -80v-1390h146q14 0 14 -13l-2 -43h-446q-2 29 -3 43q0 12 15 13h205v665q-78 -104 -195 -171.5t-256 -67.5q-182 0 -309 118.5t-127 360.5zM195 465q0 -217 107.5 -317.5t254.5 -100.5q260 0 451 275v575 q-158 59 -310 59q-225 0 -364 -133t-139 -358z" />
<glyph unicode="r" horiz-adv-x="948" d="M92 43q0 12 14 12h144v893h-156q-2 27 -2 41.5t14 14.5h218v-240q152 254 399 254q92 0 174 -29v-168q-27 -4 -45 -4q-20 0 -21 21v102q-47 12 -114 12q-225 0 -393 -295v-602h194q14 0 14 -12l-2 -43h-436q-2 29 -2 43z" />
<glyph unicode="s" horiz-adv-x="1050" d="M141 35v209q25 4 45.5 4t20.5 -21v-141q123 -39 291 -39q336 0 336 201q0 78 -69 131t-167 86t-196.5 66.5t-167 97t-68.5 155.5q0 115 101.5 177.5t293.5 62.5q190 0 326 -55v-191q-27 -4 -45 -4q-20 0 -21 21v125q-127 37 -270 36q-309 0 -309 -172q0 -72 68.5 -123 t166.5 -83.5t196.5 -69.5t167 -101.5t68.5 -158.5q0 -127 -105.5 -197.5t-305.5 -70.5q-207 0 -357 55z" />
<glyph unicode="t" horiz-adv-x="874" d="M111 989.5q0 14.5 14 14.5h135v235q29 4 51.5 4t22.5 -22v-217h366q14 0 15 -15l-2 -45h-379v-713q0 -94 47 -138t121 -44q94 0 233 76l29 -57q-154 -86 -262 -86q-111 0 -176.5 61t-65.5 178v723h-147q-2 31 -2 45.5z" />
<glyph unicode="u" horiz-adv-x="1339" d="M82 989.5q0 14.5 14 14.5h217v-553q0 -221 66.5 -311.5t200.5 -90.5q240 0 446 318v581h-158q-2 27 -2 41.5t15 14.5h217v-949h145q12 0 12 -12l-2 -43h-227v260q-70 -111 -185.5 -195.5t-252.5 -84.5q-170 0 -258 98t-88 325v545h-158q-2 27 -2 41.5z" />
<glyph unicode="v" horiz-adv-x="1234" d="M41 989.5q0 14.5 12 14.5h332q14 0 14 -15l-2 -41h-151l370 -872l373 872h-151q-2 27 -2 41.5t14 14.5h330q14 0 14 -15l-2 -41h-123l-414 -962h-77l-414 962h-121q-2 27 -2 41.5z" />
<glyph unicode="w" horiz-adv-x="1896" d="M41 989.5q0 14.5 12 14.5h332q14 0 14 -15l-2 -41h-151l291 -872l372 928h78l373 -928l293 872h-154q-2 27 -2 41.5t14 14.5h332q12 0 12 -15v-41h-122l-334 -962h-76l-375 917l-375 -917h-75l-334 962h-121q-2 27 -2 41.5z" />
<glyph unicode="x" horiz-adv-x="1253" d="M59 43q0 12 15 12h125l374 455l-360 438h-123q-2 27 -2 41.5t14 14.5h347q12 0 12 -15l-2 -41h-152l316 -385l319 385h-154q-2 27 -2 41.5t15 14.5h344q12 0 12 -15l-2 -41h-121l-362 -432l383 -461h125q14 0 14 -12l-2 -43h-369q-2 29 -2 43q0 12 15 12h129l-340 406 l-338 -406h131q14 0 14 -12l-2 -43h-369q-2 29 -2 43z" />
<glyph unicode="y" horiz-adv-x="1253" d="M41 989.5q0 14.5 12 14.5h332q14 0 14 -15l-2 -41h-147l399 -917l367 917h-164v41q0 14 12 15h336q14 0 14 -15l-2 -41h-122l-512 -1261q-76 -188 -209 -189q-66 0 -152 33v172q27 4 45 4q20 0 21 -20v-111q43 -14 82 -14q94 0 145 127l104 262l-450 997h-121 q-2 27 -2 41.5z" />
<glyph unicode="z" horiz-adv-x="1075" d="M100 14l2 43l752 885h-649v-145q0 -20 -21 -21l-45 4v224h795q14 0 14 -15l-2 -43l-753 -885h716v146q0 20 21 20l45 -4v-223h-860q-15 0 -15 14z" />
<glyph unicode="{" horiz-adv-x="616" d="M100 -127q0 106 86 261t86 231q0 66 -38.5 110.5t-100.5 56.5v56q61 12 100 56t39 110q0 78 -86 232.5t-86 260.5q0 139 104.5 226.5t297.5 87.5q14 0 14 -13l-6 -49q-172 0 -256 -72.5t-84 -179.5q0 -88 86 -247.5t86 -245.5q0 -123 -119 -195q119 -68 119 -194 q0 -84 -86 -244t-86 -248q0 -106 84 -180t248 -74q14 0 14 -14l-6 -47q-199 0 -304.5 88t-105.5 227z" />
<glyph unicode="|" horiz-adv-x="1359" d="M647 -502v2048h66v-2048h-66z" />
<glyph unicode="}" horiz-adv-x="616" d="M100 -395q0 14 15 14q164 0 247.5 74t83.5 180q0 88 -86 248t-86 244q0 127 119 194q-119 72 -119 195q0 86 86 245.5t86 247.5q0 106 -83.5 179t-256.5 73q-6 27 -6 49q0 12 15 13q193 0 297 -87.5t104 -226.5q0 -106 -86 -261t-86 -232q0 -66 39 -110t100 -56v-56 q-61 -12 -100 -57t-39 -110q0 -76 86 -230.5t86 -261.5q0 -139 -105.5 -227t-304.5 -88q-6 24 -6 47z" />
<glyph unicode="~" d="M145 551l5 49q135 98 262 98q113 0 249 -73.5t228 -73.5q117 0 246 92q25 14 24 -10l-6 -53q-131 -98 -264 -99q-106 0 -246.5 76t-230.5 76q-123 0 -242 -92q-25 -19 -25 10z" />
<glyph unicode="&#xa1;" horiz-adv-x="505" d="M166 950q0 33 24.5 56.5t59.5 23.5t59.5 -23.5t24.5 -56.5q0 -35 -24.5 -59.5t-59.5 -24.5t-59.5 24.5t-24.5 59.5zM201 -469l20 1151q18 4 33 4q18 0 18 -14l19 -1159q-37 -8 -63.5 -8.5t-26.5 26.5z" />
<glyph unicode="&#xa2;" d="M238 487q0 227 116.5 365.5t309.5 165.5v164h67v-158h21q156 0 299 -63v-193q-27 -4 -47.5 -4t-20.5 20v131q-86 41 -231 41h-21v-907q121 0 307 96l27 -59q-172 -100 -334 -106v-166h-67v168q-188 14 -307 138.5t-119 366.5zM309 487q0 -209 101.5 -316.5t253.5 -121.5 v901q-162 -27 -258.5 -148.5t-96.5 -314.5z" />
<glyph unicode="&#xa3;" d="M158 18l8 58q182 246 182 512q0 23 -2 33h-182q-2 31 -2 49q0 16 16 16h162q-10 66 -61.5 211t-51.5 244q0 176 124 275.5t345 99.5q188 0 381 -76v-209q-27 -4 -47 -4t-20 20v144q-141 61 -314 61q-186 0 -290.5 -82t-104.5 -229q0 -80 49 -227.5t60 -227.5h331 q16 0 17 -16l-2 -49h-340q0 -6 1 -17.5t1 -15.5q0 -242 -170 -525h829v205q0 20 21 21l47 -4v-285h-969q-18 0 -18 18z" />
<glyph unicode="&#xa4;" d="M121 1257l45 48l141 -140q133 139 346 139.5t346 -137.5l140 136l45 -48l-140 -137q104 -143 105 -350q0 -188 -105 -326l140 -139l-45 -51l-140 137q-139 -129 -346 -129q-209 0 -346 131l-139 -139l-45 51l139 139q-100 135 -100 326q0 209 102 348zM236 768 q0 -195 117.5 -317.5t299.5 -122.5q184 0 302 121.5t118 318.5q0 207 -112.5 339t-307.5 132q-193 0 -305 -134t-112 -337z" />
<glyph unicode="&#xa5;" d="M20 1460q0 14 15 15h407q12 0 13 -15l-2 -41h-189l389 -612l391 612h-192v41q0 14 12 15h406q14 0 14 -15l-2 -41h-158l-430 -669h418v-68h-422v-270h422v-66h-422v-291h205q14 0 14 -12l-2 -43h-508q-2 29 -2 43q0 12 15 12h204v291h-417v66h417v270h-417v68h413 l-430 669h-159q-3 29 -3 41z" />
<glyph unicode="&#xa6;" horiz-adv-x="1359" d="M647 324h66v-826h-66v826zM647 737v809h66v-809h-66z" />
<glyph unicode="&#xa7;" horiz-adv-x="1032" d="M131 1092q0 186 107.5 294.5t312.5 108.5q180 0 356 -55v-207q-27 -4 -47 -4q-18 0 -18 20v146q-72 31 -135 30q-78 0 -119 -47t-41 -127t41 -163.5t99 -160.5t115.5 -158t98.5 -184.5t41 -209.5q0 -184 -108.5 -294t-313.5 -110q-184 0 -356 58v207q27 4 47 4t20 -21 v-147q63 -29 134 -29q78 0 119.5 47t41.5 127t-41 163t-99 159.5t-115.5 157.5t-98.5 185t-41 210zM207 1092q0 -96 41 -193.5t99.5 -177.5t115.5 -159t98 -168t41 -177q0 -51 -23.5 -104.5t-58.5 -77.5q166 0 255 89t89 251q0 98 -41 195.5t-98 177t-115.5 158.5t-99.5 168 t-41 177q0 51 23.5 103.5t58.5 79.5q-166 0 -255 -90t-89 -252z" />
<glyph unicode="&#xa8;" horiz-adv-x="802" d="M141 1409q0 33 23.5 57.5t58.5 24.5t59.5 -24.5t24.5 -57.5t-24.5 -56.5t-59.5 -23.5t-58.5 23.5t-23.5 56.5zM496 1409q0 33 24.5 57.5t57.5 24.5q35 0 59.5 -23.5t24.5 -58.5q0 -33 -25 -56.5t-59 -23.5q-33 0 -57.5 23.5t-24.5 56.5z" />
<glyph unicode="&#xa9;" horiz-adv-x="1804" d="M100 770q0 342 230.5 571.5t572.5 229.5t571.5 -228.5t229.5 -572.5q0 -342 -229.5 -572.5t-571.5 -230.5q-344 0 -573.5 230.5t-229.5 572.5zM174 770q0 -319 208 -529t521 -210q309 0 517 211t208 528q0 315 -207 525t-518 210q-313 0 -521 -209t-208 -526zM414 764 q0 221 137 364.5t387 143.5q152 0 313 -58v-213q-29 -4 -49 -4t-20 21v145q-129 43 -244 43q-215 0 -333 -125t-118 -317q0 -199 122 -313.5t331 -114.5q141 0 248 41v151q0 20 20 21l47 -4v-213q-172 -63 -315 -64q-244 0 -385 131.5t-141 364.5z" />
<glyph unicode="&#xaa;" horiz-adv-x="915" d="M121 1028q0 115 84 178.5t219 63.5q86 0 207 -33v20q0 139 -49.5 191.5t-147.5 52.5q-90 0 -188 -35v-92q0 -20 -21 -20l-47 4v155q150 51 256 52q133 0 199.5 -67.5t66.5 -240.5v-366h101q14 0 14 -14l-2 -41h-182v71q-137 -88 -269 -88q-113 0 -177 56.5t-64 152.5z M193 1030q0 -72 47 -110.5t122 -38.5q129 0 269 100v188q-109 39 -207 39q-104 0 -167.5 -48t-63.5 -130z" />
<glyph unicode="&#xab;" horiz-adv-x="962" d="M59 508l390 416q39 2 59 2q8 0 11 -5.5t-1 -11.5l-352 -401l352 -402q4 -6 1 -11t-11 -5l-59 2zM401 508l387 416q41 2 62 2q6 0 9 -5.5t-1 -11.5l-350 -401l350 -402q4 -6 1 -11t-9 -5l-62 2z" />
<glyph unicode="&#xac;" d="M154 666v67h995v-395h-76v328h-919z" />
<glyph unicode="&#xad;" horiz-adv-x="841" d="M100 594v70h641v-70h-641z" />
<glyph unicode="&#xae;" horiz-adv-x="1804" d="M100 768q0 342 230.5 571.5t572.5 229.5t571.5 -228.5t229.5 -572.5q0 -342 -229.5 -572.5t-571.5 -230.5q-344 0 -573.5 230.5t-229.5 572.5zM174 768q0 -319 208 -529t521 -210q309 0 517 211t208 528q0 315 -207 525t-518 210q-313 0 -521 -209t-208 -526zM481 356.5 q0 16.5 19 16.5h129v839h-146q-2 31 -2 41q0 16 19 17h413q340 0 340 -252q0 -111 -73.5 -176.5t-190.5 -77.5q74 -29 124 -88.5t87 -175.5l41 -127h109q14 0 14 -17l-2 -41h-180l-49 164q-47 150 -149.5 212.5t-283.5 62.5v-381h134q14 0 14 -17l-2 -41h-363q-2 25 -2 41.5 zM700 819h207q131 0 200 55.5t69 143.5q0 96 -62.5 143t-204.5 47h-209v-389z" />
<glyph unicode="&#xaf;" horiz-adv-x="743" d="M96 1403q0 16 17 16h516q18 0 18 -16l-2 -49h-547q-2 31 -2 49z" />
<glyph unicode="&#xb0;" d="M90 1200q0 119 84 203t205 84t205 -83t84 -204q0 -117 -84 -198.5t-205 -81.5t-205 81.5t-84 198.5zM156 1200q0 -92 63.5 -155.5t159.5 -63.5t159.5 63.5t63.5 155.5q0 96 -63.5 160.5t-159.5 64.5t-159.5 -64.5t-63.5 -160.5z" />
<glyph unicode="&#xb1;" d="M145 27v65h471v455h-471v65h471v453h70v-453h471v-65h-471v-455h471v-65h-1012z" />
<glyph unicode="&#xb2;" horiz-adv-x="813" d="M80 885q0 14 10 22l342 244q100 74 138 123t38 96q0 63 -50 97t-138 34q-117 0 -223 -49v-113q0 -20 -21 -20l-47 4v164q137 78 291 78q125 0 192.5 -52.5t67.5 -142.5q0 -70 -47 -127t-158 -137l-293 -209h465v145q0 18 19 19l47 -4v-221h-629q-4 33 -4 49z" />
<glyph unicode="&#xb3;" horiz-adv-x="684" d="M86 874v158q29 4 49 4q18 0 19 -20v-103q84 -37 176 -36q94 0 150.5 39.5t56.5 119.5q0 135 -209 135h-84v66h100q182 0 182 133q0 135 -190 135q-80 0 -170 -28v-101q0 -20 -19 -20l-49 4v158q125 47 238 47q256 0 256 -195q0 -113 -125 -168q137 -37 137 -166 q0 -104 -75.5 -161.5t-202.5 -57.5q-111 0 -240 57z" />
<glyph unicode="&#xb4;" horiz-adv-x="655" d="M59 1206l4 47l506 230q27 12 27 -21l-8 -67l-512 -199q-17 -6 -17 10z" />
<glyph unicode="&#xb5;" d="M63 989.5q0 14.5 15 14.5h217v-607q0 -348 266 -348q240 0 447 318v581h-156q-2 27 -2 41.5t12 14.5h217v-949h146q14 0 14 -12l-2 -43h-229v260q-70 -111 -185.5 -195.5t-253.5 -84.5q-195 0 -274 145v-606q0 -20 -21 -21l-51 4v1446h-157q-3 27 -3 41.5z" />
<glyph unicode="&#xb6;" horiz-adv-x="1615" d="M100 1014q0 219 139.5 340t411.5 121h903q14 0 15 -15l-2 -41h-187v-1921h-73v1921h-285v-1921h-74v1053q-147 -41 -299 -41q-266 0 -407.5 139.5t-141.5 364.5zM176 1014q0 -197 122 -315.5t351 -118.5q154 0 299 43v788h-295q-238 0 -357.5 -103.5t-119.5 -293.5z" />
<glyph unicode="&#xb7;" horiz-adv-x="385" d="M111 582q0 35 24.5 58.5t57.5 23.5q35 0 59 -24t24 -58q0 -33 -24.5 -56.5t-58.5 -23.5q-33 0 -57.5 23.5t-24.5 56.5z" />
<glyph unicode="&#xb8;" horiz-adv-x="1026" d="M420 -397q0 23 16 12q74 -53 154 -53q63 0 108 35.5t45 101.5q0 53 -34.5 82t-90.5 29q-70 0 -129 -29l-38 31l24 188h64l-19 -147q51 20 111 20q82 0 132 -44t50 -128q0 -94 -61.5 -148.5t-159.5 -54.5t-166 49q-6 25 -6 56z" />
<glyph unicode="&#xb9;" horiz-adv-x="628" d="M106 1440q-10 18 5 26l178 99h76v-674h165q14 0 15 -14l-2 -41h-424q-2 27 -2 41t14 14h164v604l-168 -88q-15 19 -21 33z" />
<glyph unicode="&#xba;" horiz-adv-x="913" d="M100 1178q0 168 96.5 277.5t258.5 109.5q164 0 261 -108.5t97 -278.5q0 -162 -98.5 -264.5t-259.5 -102.5q-160 0 -257.5 102.5t-97.5 264.5zM168 1178q0 -133 81 -217t206 -84t206.5 83.5t81.5 217.5q0 141 -77.5 231t-210.5 90q-131 0 -209 -92t-78 -229z" />
<glyph unicode="&#xbb;" horiz-adv-x="962" d="M105.5 95q-3.5 5 0.5 11l351 402l-351 401q-4 6 -0.5 11.5t11.5 5.5l59 -2l387 -416l-387 -416q-39 -2 -59 -2q-8 0 -11.5 5zM447.5 95q-3.5 5 1.5 11l350 402l-350 401q-4 6 -1 11.5t9 5.5l61 -2l387 -416l-387 -416q-41 -2 -61 -2q-6 0 -9.5 5z" />
<glyph unicode="&#xbc;" horiz-adv-x="1611" d="M96 1358q-10 20 4 28l199 109h76v-819h166q14 0 14 -14l-2 -41h-444q-2 29 -3 41q0 14 15 14h184v749l-188 -98q-15 19 -21 31zM256 0l1057 1520l51 -39l-1057 -1520zM829 248q0 12 9 22l448 604h60v-612h180q16 0 16 -14l-2 -47h-194v-146h122q14 0 15 -12l-2 -43h-344 q-2 29 -2 43q0 12 14 12h123v146h-438q-5 33 -5 47zM913 262h359v483z" />
<glyph unicode="&#xbd;" horiz-adv-x="1748" d="M96 1358q-10 20 4 28l199 109h76v-819h166q14 0 14 -14l-2 -41h-444q-2 29 -3 41q0 14 15 14h184v749l-188 -98q-15 19 -21 31zM229 0l1057 1520l53 -39l-1058 -1520zM963 49q0 14 10 23l411 295q102 72 143.5 132t41.5 132q0 84 -62.5 130t-177.5 46q-139 0 -250 -53 v-109q0 -20 -18 -20l-49 4v164q137 78 317 77q154 0 233.5 -65.5t79.5 -173.5q0 -88 -52 -161t-160 -151l-361 -258h543v146q0 20 20 20l45 -4v-223h-710q-4 35 -4 49z" />
<glyph unicode="&#xbe;" horiz-adv-x="1644" d="M80 668v174q29 4 49.5 4t20.5 -21v-118q100 -47 215 -48q121 0 190.5 49.5t69.5 149.5q0 172 -263 172h-96v68h115q231 0 231 174q0 78 -60 122t-179 44q-106 0 -211 -39v-111q0 -20 -19 -20l-49 4v170q152 55 279 55q307 0 307 -225q0 -158 -154 -209q168 -47 168 -205 q0 -125 -91 -191.5t-243 -66.5q-130 0 -280 68zM311 0l1057 1520l53 -39l-1059 -1520zM852 247.5q0 14.5 6 22.5l451 604h57v-612h182q14 0 15 -14l-2 -47h-195v-146h125q14 0 14 -12l-2 -43h-346q-2 29 -2 43q0 12 14 12h125v146h-440q-2 32 -2 46.5zM936 262h358v483z" />
<glyph unicode="&#xbf;" horiz-adv-x="1054" d="M90 -195q0 96 45 172t109.5 130.5t129 109.5t109.5 142t45 198v123q0 14 21 14l53 -6v-119q0 -123 -45 -218t-109.5 -154.5t-129 -112.5t-109.5 -123t-45 -156q0 -115 87 -179t259 -64q186 0 350 71v146q0 20 21 20l49 -4v-209q-231 -88 -420 -88q-205 0 -312.5 83 t-107.5 224zM475 944q0 33 24.5 56.5t59.5 23.5t59.5 -23.5t24.5 -56.5q0 -35 -24.5 -59.5t-59.5 -24.5t-59.5 24.5t-24.5 59.5z" />
<glyph unicode="&#xc0;" horiz-adv-x="1609" d="M41 43q0 12 12 12h156l530 1364h-221q-2 29 -2 41q0 14 14 15h322l549 -1420h153q14 0 15 -12l-2 -43h-428q-2 29 -2 43q0 12 14 12h172l-174 451h-688l-174 -451h172q14 0 14 -12l-2 -43h-428q-2 29 -2 43zM465 1823q0 33 27 20l505 -231q4 -18 4 -47q0 -14 -16 -11 l-512 201q-8 39 -8 68zM487 571h637l-317 826z" />
<glyph unicode="&#xc1;" horiz-adv-x="1609" d="M41 43q0 12 12 12h156l530 1364h-221q-2 29 -2 41q0 14 14 15h322l549 -1420h153q14 0 15 -12l-2 -43h-428q-2 29 -2 43q0 12 14 12h172l-174 451h-688l-174 -451h172q14 0 14 -12l-2 -43h-428q-2 29 -2 43zM457 1565l4 47l506 231q27 12 26 -20l-8 -68l-512 -201 q-16 -3 -16 11zM487 571h637l-317 826z" />
<glyph unicode="&#xc2;" horiz-adv-x="1609" d="M41 43q0 12 12 12h156l530 1364h-221q-2 29 -2 41q0 14 14 15h322l549 -1420h153q14 0 15 -12l-2 -43h-428q-2 29 -2 43q0 12 14 12h172l-174 451h-688l-174 -451h172q14 0 14 -12l-2 -43h-428q-2 29 -2 43zM424 1612l4 37l315 243l314 -243q4 -16 4 -37t-14 -10 l-304 186l-303 -186q-16 -10 -16 10zM487 571h637l-317 826z" />
<glyph unicode="&#xc3;" horiz-adv-x="1609" d="M41 43q0 12 12 12h156l530 1364h-221q-2 29 -2 41q0 14 14 15h322l549 -1420h153q14 0 15 -12l-2 -43h-428q-2 29 -2 43q0 12 14 12h172l-174 451h-688l-174 -451h172q14 0 14 -12l-2 -43h-428q-2 29 -2 43zM420 1702l6 53q80 61 172 62q72 0 156 -43t143 -43 q76 0 147 53q8 6 16.5 3t8.5 -13l-6 -52q-80 -63 -172 -63q-68 0 -155 44t-144 44q-80 0 -146 -55q-10 -6 -18 -3t-8 13zM487 571h637l-317 826z" />
<glyph unicode="&#xc4;" horiz-adv-x="1609" d="M41 43q0 12 12 12h156l530 1364h-221q-2 29 -2 41q0 14 14 15h322l549 -1420h153q14 0 15 -12l-2 -43h-428q-2 29 -2 43q0 12 14 12h172l-174 451h-688l-174 -451h172q14 0 14 -12l-2 -43h-428q-2 29 -2 43zM479 1767q0 35 24.5 59.5t57.5 24.5q35 0 60.5 -24.5 t25.5 -59.5q0 -33 -25.5 -56t-60.5 -23q-33 0 -57.5 23t-24.5 56zM487 571h637l-317 826zM836 1767q0 35 23.5 59.5t58 24.5t59 -24.5t24.5 -59.5q0 -33 -24.5 -56t-58.5 -23q-33 0 -57.5 23t-24.5 56z" />
<glyph unicode="&#xc5;" horiz-adv-x="1609" d="M41 43q0 12 12 12h156l530 1364h-221q-2 29 -2 41q0 14 14 15h322l549 -1420h153q14 0 15 -12l-2 -43h-428q-2 29 -2 43q0 12 14 12h172l-174 451h-688l-174 -451h172q14 0 14 -12l-2 -43h-428q-2 29 -2 43zM487 571h637l-317 826zM559 1755q0 76 54.5 129t130 53 t129 -53t53.5 -129t-52.5 -127t-130 -51t-131 51t-53.5 127zM623 1755q0 -51 34.5 -86t85.5 -35q49 0 84 35t35 86t-34.5 86t-84.5 35q-51 0 -85.5 -35t-34.5 -86z" />
<glyph unicode="&#xc6;" horiz-adv-x="2396" d="M55 43q0 12 15 12h155l1045 1364h-219q-2 29 -2 41q0 14 12 15h1198v-244q-25 -4 -45.5 -4t-20.5 20v164h-780v-606h580v-64h-580v-678h807v187q0 18 21 18l45 -4v-264h-1125q-2 29 -2 43q0 12 15 12h165v451h-682l-342 -451h172q14 0 15 -12l-2 -43h-443q-2 29 -2 43z M709 571h630v826z" />
<glyph unicode="&#xc7;" horiz-adv-x="1482" d="M180 725q0 344 200 556t552 212q213 0 422 -72v-229q-27 -4 -47.5 -4t-20.5 20v160q-158 59 -354 59q-322 0 -500 -196.5t-178 -505.5t174 -493.5t487 -184.5q199 0 392 72v184q0 20 20 21l45 -5v-249q-240 -88 -450 -90l-17 -127q55 20 111 20q82 0 132 -44t50 -128 q0 -94 -61.5 -148.5t-159.5 -54.5q-94 0 -166 49q-6 25 -6 56q0 23 16 12q74 -53 154 -53q63 0 108 35.5t45 101.5q0 53 -34.5 82t-89.5 29q-70 0 -130 -29l-36 31l20 170q-322 16 -500 215.5t-178 527.5z" />
<glyph unicode="&#xc8;" horiz-adv-x="1458" d="M223 43q0 12 15 12h163v1364h-176q-2 29 -2 41q0 14 15 15h1085v-244q-27 -4 -47.5 -4t-20.5 20v164h-780v-606h580v-64h-580v-678h807v187q0 18 21 18l47 -4v-264h-1125q-2 29 -2 43zM545 1823q0 33 24 20l506 -231q4 -18 4 -47q0 -14 -16 -11l-512 201q-6 39 -6 68z " />
<glyph unicode="&#xc9;" horiz-adv-x="1458" d="M223 43q0 12 15 12h163v1364h-176q-2 29 -2 41q0 14 15 15h1085v-244q-27 -4 -47.5 -4t-20.5 20v164h-780v-606h580v-64h-580v-678h807v187q0 18 21 18l47 -4v-264h-1125q-2 29 -2 43zM537 1565l4 47l506 231q25 14 24 -20l-8 -68l-512 -201q-14 -3 -14 11z" />
<glyph unicode="&#xca;" horiz-adv-x="1458" d="M223 43q0 12 15 12h163v1364h-176q-2 29 -2 41q0 14 15 15h1085v-244q-27 -4 -47.5 -4t-20.5 20v164h-780v-606h580v-64h-580v-678h807v187q0 18 21 18l47 -4v-264h-1125q-2 29 -2 43zM502 1612l4 37l315 243l316 -243q4 -16 4 -37t-17 -10l-303 186l-303 -186 q-16 -10 -16 10z" />
<glyph unicode="&#xcb;" horiz-adv-x="1458" d="M223 43q0 12 15 12h163v1364h-176q-2 29 -2 41q0 14 15 15h1085v-244q-27 -4 -47.5 -4t-20.5 20v164h-780v-606h580v-64h-580v-678h807v187q0 18 21 18l47 -4v-264h-1125q-2 29 -2 43zM557 1767q0 35 24.5 59.5t59.5 24.5t59.5 -24.5t24.5 -59.5q0 -33 -24.5 -56 t-59.5 -23t-59.5 23t-24.5 56zM913 1767q0 35 25 59.5t57 24.5q35 0 59.5 -24.5t24.5 -59.5q0 -33 -24.5 -56t-59.5 -23q-33 0 -57.5 23t-24.5 56z" />
<glyph unicode="&#xcc;" horiz-adv-x="876" d="M160 1823q0 33 26 20l506 -231q4 -18 4 -47q0 -14 -16 -11l-512 201q-8 39 -8 68zM223 43q0 12 15 12h163v1364h-176q-2 29 -2 41q0 14 15 15h403q12 0 12 -15l-2 -41h-176v-1364h166q12 0 12 -12l-2 -43h-426q-2 29 -2 43z" />
<glyph unicode="&#xcd;" horiz-adv-x="876" d="M152 1565l4 47l506 231q27 12 26 -20l-8 -68l-512 -201q-16 -3 -16 11zM223 43q0 12 15 12h163v1364h-176q-2 29 -2 41q0 14 15 15h403q12 0 12 -15l-2 -41h-176v-1364h166q12 0 12 -12l-2 -43h-426q-2 29 -2 43z" />
<glyph unicode="&#xce;" horiz-adv-x="876" d="M119 1612l4 37l315 243l314 -243q4 -16 4 -37q0 -18 -15 -10l-303 186l-303 -186q-16 -10 -16 10zM223 43q0 12 15 12h163v1364h-176q-2 29 -2 41q0 14 15 15h403q12 0 12 -15l-2 -41h-176v-1364h166q12 0 12 -12l-2 -43h-426q-2 29 -2 43z" />
<glyph unicode="&#xcf;" horiz-adv-x="876" d="M174 1767q0 35 24.5 59.5t57.5 24.5q35 0 60.5 -24.5t25.5 -59.5q0 -33 -25.5 -56t-60.5 -23q-33 0 -57.5 23t-24.5 56zM223 43q0 12 15 12h163v1364h-176q-2 29 -2 41q0 14 15 15h403q12 0 12 -15l-2 -41h-176v-1364h166q12 0 12 -12l-2 -43h-426q-2 29 -2 43zM530 1767 q0 35 24 59.5t58.5 24.5t59 -24.5t24.5 -59.5q0 -33 -24.5 -56t-59.5 -23q-33 0 -57.5 23t-24.5 56z" />
<glyph unicode="&#xd0;" horiz-adv-x="1761" d="M211 688v64h190v667h-176q-2 29 -2 41q0 14 15 15h448q252 0 431 -55.5t277.5 -159t142.5 -230.5t44 -289q0 -348 -221 -544.5t-674 -196.5h-461q-2 29 -2 43q0 12 15 12h163v633h-190zM477 63h209q414 0 617.5 180.5t203.5 497.5q0 150 -38.5 264.5t-129 210t-255 145.5 t-398.5 50h-209v-659h348v-64h-348v-625z" />
<glyph unicode="&#xd1;" horiz-adv-x="1845" d="M223 43q0 12 15 12h163v1364h-176q-2 29 -2 41q0 14 15 15h251l922 -1360v1304h-176q-2 29 -2 41q0 14 14 15h404q12 0 12 -15l-2 -41h-176v-1419h-86l-924 1368v-1313h166q12 0 12 -12l-2 -43h-426q-2 29 -2 43zM614 1702l7 53q80 61 172 62q72 0 155.5 -43t143.5 -43 q76 0 147 53q10 6 17.5 3t7.5 -13l-7 -52q-80 -63 -172 -63q-68 0 -154.5 44t-144.5 44q-80 0 -145 -55q-10 -6 -18.5 -3t-8.5 13z" />
<glyph unicode="&#xd2;" horiz-adv-x="1785" d="M180 717q0 336 193.5 556t519.5 220t519.5 -219t193.5 -557q0 -324 -197 -530.5t-516.5 -206.5t-516 206.5t-196.5 530.5zM254 717q0 -299 180 -484.5t458.5 -185.5t459 185.5t180.5 484.5q0 307 -172 508.5t-467 201.5t-467 -201.5t-172 -508.5zM616 1823q0 33 27 20 l506 -231q4 -18 4 -47q0 -14 -16 -11l-512 201q-9 39 -9 68z" />
<glyph unicode="&#xd3;" horiz-adv-x="1785" d="M180 717q0 336 193.5 556t519.5 220t519.5 -219t193.5 -557q0 -324 -197 -530.5t-516.5 -206.5t-516 206.5t-196.5 530.5zM254 717q0 -299 180 -484.5t458.5 -185.5t459 185.5t180.5 484.5q0 307 -172 508.5t-467 201.5t-467 -201.5t-172 -508.5zM608 1565l4 47l506 231 q27 12 27 -20l-8 -68l-512 -201q-17 -3 -17 11z" />
<glyph unicode="&#xd4;" horiz-adv-x="1785" d="M180 717q0 336 193.5 556t519.5 220t519.5 -219t193.5 -557q0 -324 -197 -530.5t-516.5 -206.5t-516 206.5t-196.5 530.5zM254 717q0 -299 180 -484.5t458.5 -185.5t459 185.5t180.5 484.5q0 307 -172 508.5t-467 201.5t-467 -201.5t-172 -508.5zM573 1612l5 37l315 243 l315 -243q4 -16 4 -37t-16 -10l-303 186l-303 -186q-17 -10 -17 10z" />
<glyph unicode="&#xd5;" horiz-adv-x="1785" d="M180 717q0 336 193.5 556t519.5 220t519.5 -219t193.5 -557q0 -324 -197 -530.5t-516.5 -206.5t-516 206.5t-196.5 530.5zM254 717q0 -299 180 -484.5t458.5 -185.5t459 185.5t180.5 484.5q0 307 -172 508.5t-467 201.5t-467 -201.5t-172 -508.5zM569 1702l6 53 q84 61 175 62q70 0 154.5 -43t144.5 -43q74 0 145 53q10 6 18.5 3t8.5 -13l-7 -52q-82 -63 -172 -63q-68 0 -155.5 44t-143.5 44q-78 0 -147 -55q-10 -6 -18.5 -3t-8.5 13z" />
<glyph unicode="&#xd6;" horiz-adv-x="1785" d="M180 717q0 336 193.5 556t519.5 220t519.5 -219t193.5 -557q0 -324 -197 -530.5t-516.5 -206.5t-516 206.5t-196.5 530.5zM254 717q0 -299 180 -484.5t458.5 -185.5t459 185.5t180.5 484.5q0 307 -172 508.5t-467 201.5t-467 -201.5t-172 -508.5zM631 1767 q0 35 23.5 59.5t58.5 24.5t59.5 -24.5t24.5 -59.5q0 -33 -24.5 -56t-59.5 -23q-33 0 -57.5 23t-24.5 56zM985 1767q0 35 24.5 59.5t57.5 24.5q35 0 60.5 -24.5t25.5 -59.5q0 -33 -25.5 -56t-60.5 -23q-33 0 -57.5 23t-24.5 56z" />
<glyph unicode="&#xd7;" d="M209 975l45 47l397 -397l398 397l45 -47l-398 -397l394 -392l-46 -45l-393 391l-391 -391l-47 45l391 392z" />
<glyph unicode="&#xd8;" horiz-adv-x="1785" d="M180 717q0 336 193.5 556t519.5 220q295 0 487 -188l127 137l49 -45l-129 -144q178 -209 179 -536q0 -324 -197 -530.5t-516 -206.5q-283 0 -475 170l-127 -140l-47 45l125 140q-189 209 -189 522zM254 717q0 -285 164 -469l917 1005q-178 174 -442 174 q-295 0 -467 -201.5t-172 -508.5zM465 201q170 -154 428 -154q279 0 459 185.5t180 484.5q0 285 -154 483z" />
<glyph unicode="&#xd9;" horiz-adv-x="1847" d="M201 1460q0 14 14 15h383q14 0 14 -15l-2 -41h-176v-913q0 -213 129 -335t350.5 -122t350.5 122t129 335v913h-176q-2 29 -3 41q0 14 15 15h403q14 0 15 -15l-2 -41h-179v-907q0 -250 -145 -391t-410 -141q-266 0 -409.5 141t-143.5 391v907h-155q-2 29 -2 41zM637 1823 q0 35 25 20l505 -231q4 -18 4 -47q0 -14 -16 -11l-510 201q-8 39 -8 68z" />
<glyph unicode="&#xda;" horiz-adv-x="1847" d="M201 1460q0 14 14 15h383q14 0 14 -15l-2 -41h-176v-913q0 -213 129 -335t350.5 -122t350.5 122t129 335v913h-176q-2 29 -3 41q0 14 15 15h403q14 0 15 -15l-2 -41h-179v-907q0 -250 -145 -391t-410 -141q-266 0 -409.5 141t-143.5 391v907h-155q-2 29 -2 41zM629 1565 l4 47l506 231q25 14 24 -20l-8 -68l-510 -201q-16 -3 -16 11z" />
<glyph unicode="&#xdb;" horiz-adv-x="1847" d="M201 1460q0 14 14 15h383q14 0 14 -15l-2 -41h-176v-913q0 -213 129 -335t350.5 -122t350.5 122t129 335v913h-176q-2 29 -3 41q0 14 15 15h403q14 0 15 -15l-2 -41h-179v-907q0 -250 -145 -391t-410 -141q-266 0 -409.5 141t-143.5 391v907h-155q-2 29 -2 41zM594 1612 l4 37l315 243l316 -243q4 -16 4 -37t-16 -10l-304 186l-303 -186q-16 -10 -16 10z" />
<glyph unicode="&#xdc;" horiz-adv-x="1847" d="M201 1460q0 14 14 15h383q14 0 14 -15l-2 -41h-176v-913q0 -213 129 -335t350.5 -122t350.5 122t129 335v913h-176q-2 29 -3 41q0 14 15 15h403q14 0 15 -15l-2 -41h-179v-907q0 -250 -145 -391t-410 -141q-266 0 -409.5 141t-143.5 391v907h-155q-2 29 -2 41zM651 1767 q0 35 23.5 59.5t58.5 24.5t59.5 -24.5t24.5 -59.5q0 -33 -24.5 -56t-59.5 -23q-33 0 -57.5 23t-24.5 56zM1006 1767q0 35 24.5 59.5t56.5 24.5q35 0 59.5 -24.5t24.5 -59.5q0 -33 -24.5 -56t-59.5 -23q-33 0 -57 23t-24 56z" />
<glyph unicode="&#xdd;" horiz-adv-x="1464" d="M41 1460q0 14 12 15h408q14 0 14 -15l-2 -41h-188l450 -671l449 671h-191q-2 29 -2 41q0 14 15 15h405q14 0 14 -15l-2 -41h-159l-494 -737v-627h225q14 0 15 -12l-2 -43h-549q-2 29 -2 43q0 12 14 12h225v627l-493 737h-160q-2 29 -2 41zM451 1565l2 47l505 231 q27 12 27 -20l-8 -68l-512 -201q-14 -1 -14 11z" />
<glyph unicode="&#xde;" horiz-adv-x="1253" d="M70 43q0 12 14 12h166v1364h-178q-2 29 -2 41q0 14 14 15h403q14 0 15 -15l-2 -41h-176v-192h297q272 0 410 -121t138 -342q0 -225 -140 -363.5t-406 -138.5q-156 0 -299 41v-248h225q12 0 12 -12l-2 -43h-487q-2 29 -2 43zM324 373q147 -41 299 -41q229 0 350 117.5 t121 314.5q0 190 -119 293.5t-359 103.5h-292v-788z" />
<glyph unicode="&#xdf;" horiz-adv-x="1329" d="M49 0v43q0 12 12 12h146v1037q0 221 123 342.5t321 121.5q168 0 264.5 -83.5t96.5 -212.5q0 -80 -34 -138.5t-83 -86t-108.5 -50t-108.5 -37t-83 -41t-34 -63.5q0 -45 48 -75t120 -43t155 -40t154.5 -60.5t119.5 -107.5t48 -178q0 -182 -117.5 -271t-297.5 -89 q-139 0 -328 61l22 65q154 -59 306 -59q176 0 259 80t83 213q0 94 -48.5 157.5t-119 90t-154.5 50.5t-154.5 40t-119 57t-48.5 107q0 61 45.5 100t111 60.5t131 46t110.5 77t45 134.5q0 104 -75 168.5t-206 64.5q-166 0 -269 -105.5t-103 -295.5v-1092h-230z" />
<glyph unicode="&#xe0;" horiz-adv-x="1114" d="M80 266q0 162 122 252t326 90q141 0 293 -47v29q0 213 -71.5 289.5t-217.5 76.5q-147 0 -292 -53v-123q0 -20 -21 -20l-47 4v188q195 72 360 72q184 0 272.5 -95t88.5 -339v-535h145q14 0 15 -12l-2 -43h-230v113q-211 -133 -403 -133q-158 0 -248 75.5t-90 210.5z M156 266q0 -109 71.5 -164t190.5 -55q205 0 403 148v301q-156 47 -293 47q-174 0 -273 -75t-99 -202zM217 1462q0 33 27 21l506 -230q2 -18 2 -47q0 -16 -15 -10l-512 199q-8 40 -8 67z" />
<glyph unicode="&#xe1;" horiz-adv-x="1114" d="M80 266q0 162 122 252t326 90q141 0 293 -47v29q0 213 -71.5 289.5t-217.5 76.5q-147 0 -292 -53v-123q0 -20 -21 -20l-47 4v188q195 72 360 72q184 0 272.5 -95t88.5 -339v-535h145q14 0 15 -12l-2 -43h-230v113q-211 -133 -403 -133q-158 0 -248 75.5t-90 210.5z M156 266q0 -109 71.5 -164t190.5 -55q205 0 403 148v301q-156 47 -293 47q-174 0 -273 -75t-99 -202zM209 1206l4 47l506 230q27 12 26 -21l-8 -67l-512 -199q-16 -6 -16 10z" />
<glyph unicode="&#xe2;" horiz-adv-x="1114" d="M80 266q0 162 122 252t326 90q141 0 293 -47v29q0 213 -71.5 289.5t-217.5 76.5q-147 0 -292 -53v-123q0 -20 -21 -20l-47 4v188q195 72 360 72q184 0 272.5 -95t88.5 -339v-535h145q14 0 15 -12l-2 -43h-230v113q-211 -133 -403 -133q-158 0 -248 75.5t-90 210.5z M156 266q0 -109 71.5 -164t190.5 -55q205 0 403 148v301q-156 47 -293 47q-174 0 -273 -75t-99 -202zM174 1253l4 35l316 246l315 -246q4 -16 4 -35q0 -20 -16 -10l-303 187l-304 -187q-16 -10 -16 10z" />
<glyph unicode="&#xe3;" horiz-adv-x="1114" d="M80 266q0 162 122 252t326 90q141 0 293 -47v29q0 213 -71.5 289.5t-217.5 76.5q-147 0 -292 -53v-123q0 -20 -21 -20l-47 4v188q195 72 360 72q184 0 272.5 -95t88.5 -339v-535h145q14 0 15 -12l-2 -43h-230v113q-211 -133 -403 -133q-158 0 -248 75.5t-90 210.5z M156 266q0 -109 71.5 -164t190.5 -55q205 0 403 148v301q-156 47 -293 47q-174 0 -273 -75t-99 -202zM170 1343l6 52q80 61 174 61q70 0 155 -43t144 -43q76 0 146 55q10 6 18 3t8 -13l-6 -53q-84 -61 -172 -62q-70 0 -156 43t-143 43q-76 0 -147 -53q-10 -6 -18.5 -3 t-8.5 13z" />
<glyph unicode="&#xe4;" horiz-adv-x="1114" d="M80 266q0 162 122 252t326 90q141 0 293 -47v29q0 213 -71.5 289.5t-217.5 76.5q-147 0 -292 -53v-123q0 -20 -21 -20l-47 4v188q195 72 360 72q184 0 272.5 -95t88.5 -339v-535h145q14 0 15 -12l-2 -43h-230v113q-211 -133 -403 -133q-158 0 -248 75.5t-90 210.5z M156 266q0 -109 71.5 -164t190.5 -55q205 0 403 148v301q-156 47 -293 47q-174 0 -273 -75t-99 -202zM231 1409q0 33 24 57.5t58.5 24.5t59 -24.5t24.5 -57.5t-24.5 -56.5t-59 -23.5t-58.5 23.5t-24 56.5zM586 1409q0 33 24.5 57.5t57.5 24.5q35 0 59.5 -23.5t24.5 -58.5 q0 -33 -25 -56.5t-59 -23.5q-33 0 -57.5 23.5t-24.5 56.5z" />
<glyph unicode="&#xe5;" horiz-adv-x="1114" d="M80 266q0 162 122 252t326 90q141 0 293 -47v29q0 213 -71.5 289.5t-217.5 76.5q-147 0 -292 -53v-123q0 -20 -21 -20l-47 4v188q195 72 360 72q184 0 272.5 -95t88.5 -339v-535h145q14 0 15 -12l-2 -43h-230v113q-211 -133 -403 -133q-158 0 -248 75.5t-90 210.5z M156 266q0 -109 71.5 -164t190.5 -55q205 0 403 148v301q-156 47 -293 47q-174 0 -273 -75t-99 -202zM311 1397q0 76 53.5 128t129 52t129 -52t53.5 -128t-52.5 -127t-130 -51t-130 51t-52.5 127zM373 1394.5q0 -51.5 35.5 -86t85 -34.5t85 34.5t35.5 86t-35.5 87.5t-85 36 t-85 -36t-35.5 -87.5z" />
<glyph unicode="&#xe6;" horiz-adv-x="1765" d="M80 266q0 162 122 252t326 90q141 0 293 -47v29q0 213 -71.5 289.5t-217.5 76.5q-147 0 -292 -53v-123q0 -20 -21 -20l-47 4v188q195 72 360 72q147 0 234.5 -62.5t107.5 -209.5q59 133 168 202.5t242 69.5q184 0 282.5 -114.5t98.5 -323.5q0 -49 -6 -105h-764 q2 -221 115.5 -326.5t269.5 -105.5q88 0 157.5 26.5t166.5 94.5l41 -55q-178 -135 -365 -135q-244 0 -371 182q-150 -96 -257 -139t-234 -43q-158 0 -248 75.5t-90 210.5zM156 266q0 -109 71.5 -164t190.5 -55q213 0 454 178q-51 117 -51 267v4q-156 47 -293 47 q-174 0 -273 -75t-99 -202zM897 545h692q2 16 2 51q0 174 -79.5 267t-227.5 93q-154 0 -263.5 -108t-123.5 -303z" />
<glyph unicode="&#xe7;" horiz-adv-x="1050" d="M121 487q0 254 143.5 395.5t370.5 141.5q158 0 299 -63v-193q-27 -4 -47.5 -4t-20.5 20v131q-86 41 -231 41q-201 0 -321.5 -125.5t-120.5 -343.5q0 -225 116.5 -331.5t286.5 -106.5q139 0 326 96l28 -59q-188 -106 -354 -106q-6 0 -16.5 1t-14.5 1l-14 -129 q51 20 108 20q82 0 133.5 -44t51.5 -128q0 -94 -61.5 -148.5t-159.5 -54.5q-96 0 -168 49q-4 25 -4 56q0 23 14 12q78 -53 156 -53q63 0 107 35.5t44 101.5q0 53 -33.5 82t-89.5 29q-72 0 -129 -29l-39 31l23 176q-172 25 -277.5 148.5t-105.5 350.5z" />
<glyph unicode="&#xe8;" horiz-adv-x="1064" d="M121 492q0 248 134 390t329 142q184 0 282.5 -114.5t98.5 -323.5q0 -49 -7 -105h-763q2 -221 115.5 -326.5t269.5 -105.5q88 0 157.5 26.5t165.5 94.5l41 -55q-178 -135 -364 -135q-190 0 -324.5 127t-134.5 385zM197 545h692q2 16 2 51q0 174 -80 267t-227 93 q-154 0 -263.5 -108t-123.5 -303zM305 1462q0 33 27 21l506 -230q4 -18 4 -47q0 -16 -17 -10l-512 199q-8 40 -8 67z" />
<glyph unicode="&#xe9;" horiz-adv-x="1064" d="M121 492q0 248 134 390t329 142q184 0 282.5 -114.5t98.5 -323.5q0 -49 -7 -105h-763q2 -221 115.5 -326.5t269.5 -105.5q88 0 157.5 26.5t165.5 94.5l41 -55q-178 -135 -364 -135q-190 0 -324.5 127t-134.5 385zM197 545h692q2 16 2 51q0 174 -80 267t-227 93 q-154 0 -263.5 -108t-123.5 -303zM297 1206l4 47l506 230q27 12 27 -21l-9 -67l-512 -199q-16 -6 -16 10z" />
<glyph unicode="&#xea;" horiz-adv-x="1064" d="M121 492q0 248 134 390t329 142q184 0 282.5 -114.5t98.5 -323.5q0 -49 -7 -105h-763q2 -221 115.5 -326.5t269.5 -105.5q88 0 157.5 26.5t165.5 94.5l41 -55q-178 -135 -364 -135q-190 0 -324.5 127t-134.5 385zM197 545h692q2 16 2 51q0 174 -80 267t-227 93 q-154 0 -263.5 -108t-123.5 -303zM262 1253l4 35l316 246l315 -246q4 -16 4 -35q0 -20 -16 -10l-303 187l-303 -187q-17 -10 -17 10z" />
<glyph unicode="&#xeb;" horiz-adv-x="1064" d="M121 492q0 248 134 390t329 142q184 0 282.5 -114.5t98.5 -323.5q0 -49 -7 -105h-763q2 -221 115.5 -326.5t269.5 -105.5q88 0 157.5 26.5t165.5 94.5l41 -55q-178 -135 -364 -135q-190 0 -324.5 127t-134.5 385zM197 545h692q2 16 2 51q0 174 -80 267t-227 93 q-154 0 -263.5 -108t-123.5 -303zM319 1409q0 33 25 57.5t57 24.5q35 0 59.5 -23.5t24.5 -58.5q0 -33 -24.5 -56.5t-59 -23.5t-58.5 23.5t-24 56.5zM674 1409q0 33 24.5 57.5t57.5 24.5q35 0 60.5 -24.5t25.5 -57.5t-25.5 -56.5t-60.5 -23.5q-33 0 -57.5 23.5t-24.5 56.5z " />
<glyph unicode="&#xec;" horiz-adv-x="573" d="M16 1432q0 31 27 20l369 -180q4 -18 4 -45q0 -16 -17 -10l-374 149q-9 37 -9 66zM92 43q0 12 14 12h144v893h-156q-2 27 -2 41.5t14 14.5h218v-949h143q14 0 14 -12l-2 -43h-385q-2 29 -2 43z" />
<glyph unicode="&#xed;" horiz-adv-x="573" d="M16 1227l4 45l369 180q27 10 27 -20l-8 -66l-375 -149q-17 -6 -17 10zM92 43q0 12 14 12h144v893h-156q-2 27 -2 41.5t14 14.5h218v-949h143q14 0 14 -12l-2 -43h-385q-2 29 -2 43z" />
<glyph unicode="&#xee;" horiz-adv-x="573" d="M14 1233l4 33l224 215l223 -215q4 -12 4 -33q0 -23 -16 -10l-211 149l-211 -149q-17 -13 -17 10zM92 43q0 12 14 12h144v893h-156q-2 27 -2 41.5t14 14.5h218v-949h143q14 0 14 -12l-2 -43h-385q-2 29 -2 43z" />
<glyph unicode="&#xef;" horiz-adv-x="573" d="M10 1409q0 33 24.5 57.5t57.5 24.5q35 0 59.5 -23.5t24.5 -58.5q0 -33 -24.5 -56.5t-59.5 -23.5q-33 0 -57.5 23.5t-24.5 56.5zM92 43q0 12 14 12h144v893h-156q-2 27 -2 41.5t14 14.5h218v-949h143q14 0 14 -12l-2 -43h-385q-2 29 -2 43zM305 1409q0 33 24.5 57.5 t57.5 24.5q35 0 59.5 -23.5t24.5 -58.5q0 -33 -24.5 -56.5t-59.5 -23.5q-33 0 -57.5 23.5t-24.5 56.5z" />
<glyph unicode="&#xf0;" horiz-adv-x="1175" d="M119 500q0 236 136 381t376 145q174 0 319 -88q-55 174 -172 334l-231 -131l-35 59l225 127q-90 106 -186 180l39 52q117 -90 209 -197l207 119l34 -60l-198 -112q229 -303 229 -678q0 -328 -129 -489.5t-346 -161.5q-225 0 -351 141t-126 379zM193 502 q0 -207 107.5 -331t295.5 -124q182 0 290.5 141.5t110.5 442.5q0 106 -24 221q-147 104 -342 104q-207 0 -322.5 -125.5t-115.5 -328.5z" />
<glyph unicode="&#xf1;" horiz-adv-x="1411" d="M92 43q0 12 14 12h144v893h-156q-2 27 -2 41.5t14 14.5h218v-220q172 129 294.5 184.5t241.5 55.5q319 0 320 -401v-568h145q14 0 14 -12l-2 -43h-385q-2 29 -2 43q0 12 13 12h145v559q0 188 -66.5 265t-183.5 77q-233 0 -534 -247v-654h143q14 0 14 -12l-2 -43h-385 q-2 29 -2 43zM416 1343l6 52q78 61 172 61q72 0 156 -43t143 -43q78 0 147 55q8 8 16.5 4t8.5 -14l-6 -53q-80 -61 -172 -62q-68 0 -155 43t-144 43q-78 0 -146 -53q-10 -6 -18 -3t-8 13z" />
<glyph unicode="&#xf2;" horiz-adv-x="1226" d="M121 487q0 233 132 385t359.5 152t360.5 -150.5t133 -386.5q0 -223 -136 -365t-357.5 -142t-356.5 142t-135 365zM193 487q0 -195 118.5 -317.5t301 -122.5t301 122t118.5 318q0 205 -112.5 337t-307.5 132q-193 0 -306 -134t-113 -335zM336 1462q0 35 24 21l506 -230 q4 -18 4 -47q0 -16 -16 -10l-510 199q-8 40 -8 67z" />
<glyph unicode="&#xf3;" horiz-adv-x="1226" d="M121 487q0 233 132 385t359.5 152t360.5 -150.5t133 -386.5q0 -223 -136 -365t-357.5 -142t-356.5 142t-135 365zM193 487q0 -195 118.5 -317.5t301 -122.5t301 122t118.5 318q0 205 -112.5 337t-307.5 132q-193 0 -306 -134t-113 -335zM328 1206l4 47l506 230 q25 14 24 -21l-8 -67l-510 -199q-16 -6 -16 10z" />
<glyph unicode="&#xf4;" horiz-adv-x="1226" d="M121 487q0 233 132 385t359.5 152t360.5 -150.5t133 -386.5q0 -223 -136 -365t-357.5 -142t-356.5 142t-135 365zM193 487q0 -195 118.5 -317.5t301 -122.5t301 122t118.5 318q0 205 -112.5 337t-307.5 132q-193 0 -306 -134t-113 -335zM293 1253l4 35l315 246l316 -246 q4 -16 4 -35q0 -20 -17 -10l-303 187l-303 -187q-16 -10 -16 10z" />
<glyph unicode="&#xf5;" horiz-adv-x="1226" d="M121 487q0 233 132 385t359.5 152t360.5 -150.5t133 -386.5q0 -223 -136 -365t-357.5 -142t-356.5 142t-135 365zM193 487q0 -195 118.5 -317.5t301 -122.5t301 122t118.5 318q0 205 -112.5 337t-307.5 132q-193 0 -306 -134t-113 -335zM289 1343l6 52q80 61 172 61 q72 0 157 -43t142 -43q78 0 147 55q10 6 18.5 3t8.5 -13l-6 -53q-84 -61 -174 -62q-68 0 -155 43t-144 43q-78 0 -146 -53q-10 -6 -18 -3t-8 13z" />
<glyph unicode="&#xf6;" horiz-adv-x="1226" d="M121 487q0 233 132 385t359.5 152t360.5 -150.5t133 -386.5q0 -223 -136 -365t-357.5 -142t-356.5 142t-135 365zM193 487q0 -195 118.5 -317.5t301 -122.5t301 122t118.5 318q0 205 -112.5 337t-307.5 132q-193 0 -306 -134t-113 -335zM350 1409q0 33 23.5 57.5 t58.5 24.5t59.5 -24.5t24.5 -57.5t-24.5 -56.5t-59.5 -23.5t-58.5 23.5t-23.5 56.5zM705 1409q0 33 24.5 57.5t56.5 24.5q35 0 59.5 -23.5t24.5 -58.5q0 -33 -24.5 -56.5t-59.5 -23.5q-33 0 -57 23.5t-24 56.5z" />
<glyph unicode="&#xf7;" d="M145 539v65h1012v-65h-1012zM580 209q0 33 24.5 57.5t57.5 24.5q35 0 60.5 -24.5t25.5 -57.5t-26 -56.5t-60 -23.5q-33 0 -57.5 23.5t-24.5 56.5zM580 938q0 33 24.5 57.5t57.5 24.5q35 0 60.5 -24.5t25.5 -57.5t-26 -57.5t-60 -24.5q-33 0 -57.5 24.5t-24.5 57.5z" />
<glyph unicode="&#xf8;" horiz-adv-x="1226" d="M121 487q0 233 132 385t359 152q195 0 330 -123l102 117l50 -43l-107 -121q119 -147 119 -367q0 -223 -136 -365t-358 -142q-178 0 -309 98l-104 -121l-49 47l102 119q-131 141 -131 364zM193 487q0 -188 110 -309l592 672q-111 106 -283 106q-193 0 -306 -134t-113 -335 zM350 133q109 -86 262 -86q182 0 301 122t119 318q0 184 -92 312z" />
<glyph unicode="&#xf9;" horiz-adv-x="1339" d="M82 989.5q0 14.5 14 14.5h217v-553q0 -221 66.5 -311.5t200.5 -90.5q240 0 446 318v581h-158q-2 27 -2 41.5t15 14.5h217v-949h145q12 0 12 -12l-2 -43h-227v260q-70 -111 -185.5 -195.5t-252.5 -84.5q-170 0 -258 98t-88 325v545h-158q-2 27 -2 41.5zM362 1462 q0 33 27 21l506 -230q4 -18 4 -47q0 -16 -16 -10l-512 199q-9 40 -9 67z" />
<glyph unicode="&#xfa;" horiz-adv-x="1339" d="M82 989.5q0 14.5 14 14.5h217v-553q0 -221 66.5 -311.5t200.5 -90.5q240 0 446 318v581h-158q-2 27 -2 41.5t15 14.5h217v-949h145q12 0 12 -12l-2 -43h-227v260q-70 -111 -185.5 -195.5t-252.5 -84.5q-170 0 -258 98t-88 325v545h-158q-2 27 -2 41.5zM354 1206l4 47 l506 230q27 12 27 -21l-8 -67l-512 -199q-17 -6 -17 10z" />
<glyph unicode="&#xfb;" horiz-adv-x="1339" d="M82 989.5q0 14.5 14 14.5h217v-553q0 -221 66.5 -311.5t200.5 -90.5q240 0 446 318v581h-158q-2 27 -2 41.5t15 14.5h217v-949h145q12 0 12 -12l-2 -43h-227v260q-70 -111 -185.5 -195.5t-252.5 -84.5q-170 0 -258 98t-88 325v545h-158q-2 27 -2 41.5zM322 1253l4 35 l315 246l313 -246q4 -16 4 -35q0 -20 -14 -10l-303 187l-303 -187q-16 -10 -16 10z" />
<glyph unicode="&#xfc;" horiz-adv-x="1339" d="M82 989.5q0 14.5 14 14.5h217v-553q0 -221 66.5 -311.5t200.5 -90.5q240 0 446 318v581h-158q-2 27 -2 41.5t15 14.5h217v-949h145q12 0 12 -12l-2 -43h-227v260q-70 -111 -185.5 -195.5t-252.5 -84.5q-170 0 -258 98t-88 325v545h-158q-2 27 -2 41.5zM377 1409 q0 33 24.5 57.5t57.5 24.5q35 0 60.5 -24.5t25.5 -57.5t-25.5 -56.5t-60.5 -23.5q-33 0 -57.5 23.5t-24.5 56.5zM733 1409q0 33 24.5 57.5t57.5 24.5q35 0 59.5 -24.5t24.5 -57.5t-24.5 -56.5t-59.5 -23.5t-58.5 23.5t-23.5 56.5z" />
<glyph unicode="&#xfd;" horiz-adv-x="1253" d="M41 989.5q0 14.5 12 14.5h332q14 0 14 -15l-2 -41h-147l399 -917l367 917h-164v41q0 14 12 15h336q14 0 14 -15l-2 -41h-122l-512 -1261q-76 -188 -209 -189q-66 0 -152 33v172q27 4 45 4q20 0 21 -20v-111q43 -14 82 -14q94 0 145 127l104 262l-450 997h-121 q-2 27 -2 41.5zM342 1171l4 48l506 231q25 10 25 -20l-9 -70l-512 -199q-14 -6 -14 10z" />
<glyph unicode="&#xfe;" horiz-adv-x="1216" d="M-4 1532q0 14 14 14h238v-762q250 240 479 240q170 0 284.5 -114.5t114.5 -354.5q0 -289 -155.5 -432t-390.5 -143q-174 0 -332 69v-495h203q14 0 14 -13l-2 -43h-445q-2 29 -2 43q0 12 15 13h143v1935h-176q-2 29 -2 43zM248 121q147 -74 332 -74q203 0 338 125t135 383 q0 209 -95.5 305t-234.5 96q-227 0 -475 -258v-577z" />
<glyph unicode="&#xff;" horiz-adv-x="1253" d="M41 989.5q0 14.5 12 14.5h332q14 0 14 -15l-2 -41h-147l399 -917l367 917h-164v41q0 14 12 15h336q14 0 14 -15l-2 -41h-122l-512 -1261q-76 -188 -209 -189q-66 0 -152 33v172q27 4 45 4q20 0 21 -20v-111q43 -14 82 -14q94 0 145 127l104 262l-450 997h-121 q-2 27 -2 41.5zM362 1374q0 35 25 58.5t59.5 23.5t59 -23.5t24.5 -58.5q0 -33 -24.5 -56.5t-59 -23.5t-59.5 23.5t-25 56.5zM719 1374q0 35 23.5 58.5t58.5 23.5t59.5 -23.5t24.5 -58.5q0 -33 -24.5 -56.5t-59.5 -23.5q-33 0 -57.5 23.5t-24.5 56.5z" />
<glyph unicode="&#x152;" horiz-adv-x="2476" d="M180 717q0 334 193.5 546t519.5 212h1448v-244q-27 -4 -47.5 -4t-20.5 20v164h-1065q170 -78 272.5 -236.5t121.5 -369.5h471v-64h-469q0 -4 1 -12t1 -12q0 -229 -104.5 -401.5t-287.5 -252.5h1086v187q0 18 20 18l45 -4v-264h-1472q-322 0 -517.5 197.5t-195.5 519.5z M254 717q0 -297 179 -474t460 -177t460 177t179 474q0 303 -172 497.5t-467 194.5t-467 -194.5t-172 -497.5z" />
<glyph unicode="&#x153;" horiz-adv-x="1976" d="M121 487q0 233 132 385t359 152q164 0 283 -84t170 -225q53 147 169 228t261 81q184 0 282.5 -114.5t98.5 -323.5q0 -49 -6 -105h-764q2 -221 115.5 -326.5t269.5 -105.5q88 0 157.5 26.5t166.5 94.5l40 -55q-178 -135 -364 -135q-141 0 -258 71.5t-168 218.5 q-55 -135 -173 -212.5t-280 -77.5q-221 0 -356 142t-135 365zM193 487q0 -195 118.5 -317.5t301 -122.5t301 119t118.5 321q0 205 -112.5 337t-307.5 132q-193 0 -306 -134t-113 -335zM1108 545h692q2 16 2 51q0 174 -80 267t-227 93q-154 0 -263.5 -108t-123.5 -303z" />
<glyph unicode="&#x178;" horiz-adv-x="1464" d="M41 1460q0 14 12 15h408q14 0 14 -15l-2 -41h-188l450 -671l449 671h-191q-2 29 -2 41q0 14 15 15h405q14 0 14 -15l-2 -41h-159l-494 -737v-627h225q14 0 15 -12l-2 -43h-549q-2 29 -2 43q0 12 14 12h225v627l-493 737h-160q-2 29 -2 41zM471 1767q0 35 24.5 59.5 t57.5 24.5q35 0 60.5 -24.5t25.5 -59.5q0 -33 -25.5 -56t-60.5 -23q-33 0 -57.5 23t-24.5 56zM827 1767q0 35 23.5 59.5t58.5 24.5t59.5 -24.5t24.5 -59.5q0 -33 -24.5 -56t-59.5 -23q-33 0 -57.5 23t-24.5 56z" />
<glyph unicode="&#x2c6;" horiz-adv-x="757" d="M59 1253l4 35l316 246l315 -246q4 -16 4 -35q0 -20 -16 -10l-303 187l-303 -187q-17 -10 -17 10z" />
<glyph unicode="&#x2dc;" horiz-adv-x="851" d="M94 1343l6 52q76 61 172 61q72 0 157 -43t142 -43q78 0 148 55q10 6 18 3t8 -13l-6 -53q-84 -61 -174 -62q-68 0 -154.5 43t-144.5 43q-78 0 -145 -53q-10 -6 -18.5 -3t-8.5 13z" />
<glyph unicode="&#x2000;" horiz-adv-x="968" />
<glyph unicode="&#x2001;" horiz-adv-x="1937" />
<glyph unicode="&#x2002;" horiz-adv-x="968" />
<glyph unicode="&#x2003;" horiz-adv-x="1937" />
<glyph unicode="&#x2004;" horiz-adv-x="645" />
<glyph unicode="&#x2005;" horiz-adv-x="483" />
<glyph unicode="&#x2006;" horiz-adv-x="321" />
<glyph unicode="&#x2007;" horiz-adv-x="321" />
<glyph unicode="&#x2008;" horiz-adv-x="241" />
<glyph unicode="&#x2009;" horiz-adv-x="387" />
<glyph unicode="&#x200a;" horiz-adv-x="106" />
<glyph unicode="&#x2010;" horiz-adv-x="841" d="M100 594v70h641v-70h-641z" />
<glyph unicode="&#x2011;" horiz-adv-x="841" d="M100 594v70h641v-70h-641z" />
<glyph unicode="&#x2012;" horiz-adv-x="841" d="M100 594v70h641v-70h-641z" />
<glyph unicode="&#x2013;" horiz-adv-x="1042" d="M0 569v64h1042v-64h-1042z" />
<glyph unicode="&#x2014;" horiz-adv-x="2082" d="M0 569v64h2083v-64h-2083z" />
<glyph unicode="&#x2018;" horiz-adv-x="389" d="M121 1202v96q14 82 34.5 134.5t77.5 126.5q10 10 22.5 5t23.5 -18l10 -12q-43 -70 -56.5 -120t-13.5 -146v-66h-98z" />
<glyph unicode="&#x2019;" horiz-adv-x="389" d="M100 1214q43 70 56.5 120t13.5 145v67h98v-96q-14 -82 -34.5 -134t-77.5 -128q-10 -10 -22.5 -5t-22.5 17z" />
<glyph unicode="&#x201a;" horiz-adv-x="350" d="M90 -332q43 70 56.5 120t13.5 146v66h98v-96q-12 -80 -32.5 -132.5t-78.5 -127.5q-10 -10 -23 -5t-24 17z" />
<glyph unicode="&#x201c;" horiz-adv-x="583" d="M121 1202v96q14 82 34.5 134.5t77.5 126.5q10 10 22.5 5t23.5 -18l10 -12q-43 -70 -56.5 -120t-13.5 -146v-66h-98zM354 1202v96q14 80 35 132.5t78 128.5q10 10 23.5 5t23.5 -18l10 -12q-45 -70 -58 -120t-13 -146v-66h-99z" />
<glyph unicode="&#x201d;" horiz-adv-x="583" d="M80 1214q45 70 57.5 119t12.5 146v67h100v-96q-14 -80 -34.5 -133t-78.5 -129q-20 -27 -57 26zM315 1214q43 70 56.5 120t13.5 145v67h98v-96q-14 -80 -34.5 -133t-77.5 -129q-10 -10 -22.5 -5t-22.5 17z" />
<glyph unicode="&#x201e;" horiz-adv-x="583" d="M90 -332q43 70 56.5 120t13.5 146v66h98v-96q-12 -80 -32.5 -132.5t-78.5 -127.5q-10 -10 -23 -5t-24 17zM326 -332q43 70 56 120t13 146v66h99v-96q-14 -80 -35 -132.5t-78 -127.5q-10 -10 -22.5 -5t-22.5 17z" />
<glyph unicode="&#x2022;" horiz-adv-x="491" d="M123 621q0 59 42 101t99 42q63 0 106.5 -42t43.5 -101q0 -57 -43 -98.5t-107 -41.5q-57 0 -99 41.5t-42 98.5z" />
<glyph unicode="&#x2026;" horiz-adv-x="2082" d="M260 59q0 35 24.5 59.5t59.5 24.5t59.5 -24.5t24.5 -59.5q0 -33 -24.5 -56t-59.5 -23t-59.5 23t-24.5 56zM958 59q0 35 25 59.5t59.5 24.5t59 -24.5t24.5 -59.5q0 -33 -24.5 -56t-59 -23t-59.5 23t-25 56zM1657 59q0 35 24.5 59.5t59.5 24.5t59.5 -24.5t24.5 -59.5 q0 -33 -24.5 -56t-59.5 -23t-59.5 23t-24.5 56z" />
<glyph unicode="&#x202f;" horiz-adv-x="387" />
<glyph unicode="&#x2039;" horiz-adv-x="622" d="M59 508l390 416q39 2 59 2q8 0 11 -5.5t-1 -11.5l-352 -401l352 -402q4 -6 1 -11t-11 -5l-59 2z" />
<glyph unicode="&#x203a;" horiz-adv-x="622" d="M105.5 95q-3.5 5 0.5 11l351 402l-351 401q-4 6 -0.5 11.5t11.5 5.5l59 -2l387 -416l-387 -416q-39 -2 -59 -2q-8 0 -11.5 5z" />
<glyph unicode="&#x205f;" horiz-adv-x="483" />
<glyph unicode="&#x20ac;" d="M72 502v65h131q-10 61 -10 158q0 66 4 98h-125v66h131q41 289 221 446.5t438 157.5q109 0 180.5 -14.5t182.5 -51.5v-208q-27 -4 -47.5 -4.5t-20.5 20.5v139q-127 53 -295 53q-225 0 -384 -140t-199 -398h575l-10 -66h-574q-4 -33 -4 -98q0 -76 10 -158h525l-13 -65h-499 q51 -223 201.5 -339t359.5 -116q182 0 356 80l27 -64q-127 -49 -204 -66t-181 -17q-244 0 -413 133t-222 389h-141z" />
<glyph unicode="&#x2122;" horiz-adv-x="2168" d="M121 1354v192h758v-192q-27 -4 -45 -4q-20 0 -21 18v115h-276v-592h133q14 0 14 -14l-2 -41h-365q-2 27 -2 41t15 14h133v592h-277v-115q0 -18 -20 -18zM946 876.5q0 14.5 12 14.5h115v598h-125q-2 29 -2 43t12 14h226l313 -624l318 624h221q14 0 14 -14l-2 -43h-127 v-598h115q14 0 14 -14l-2 -41h-326q-2 27 -2 41t15 14h114v571l-321 -626h-64l-317 626v-571h113q14 0 14 -14l-2 -41h-324q-2 26 -2 40.5z" />
<glyph unicode="&#xe000;" horiz-adv-x="1004" d="M0 1005h1005v-1005h-1005v1005z" />
<glyph unicode="&#xfb01;" horiz-adv-x="1433" d="M952 43q0 12 14 12h144v893h-156q-2 27 -2 41.5t14 14.5h218v-949h143q14 0 14 -12l-2 -43h-385q-2 29 -2 43zM1034 1462q0 33 22.5 54.5t53.5 21.5t53.5 -21.5t22.5 -54.5q0 -29 -22.5 -50t-53.5 -21t-53.5 21t-22.5 50zM92 43q0 12 14 12h144v889h-156q-2 31 -2 45.5 t14 14.5h144v108q0 223 107.5 333.5t275.5 110.5q133 0 227 -43v-167q-25 -4 -45 -4.5t-20 18.5v106q-61 27 -158 27q-141 0 -227 -90t-86 -291v-108h335q14 0 15 -15l-2 -45h-348v-889h202q14 0 15 -12l-2 -43h-445q-2 29 -2 43z" />
<glyph unicode="&#xfb02;" horiz-adv-x="1456" d="M952 1528q0 18 14 18h240v-1491h143q14 0 15 -12l-2 -43h-385q-2 29 -2 43q0 12 14 12h143v1434h-178q-2 25 -2 39zM92 43q0 12 14 12h144v889h-156q-2 31 -2 45.5t14 14.5h144v108q0 223 107.5 333.5t275.5 110.5q133 0 227 -43v-167q-25 -4 -45 -4.5t-20 18.5v106 q-61 27 -158 27q-141 0 -227 -90t-86 -291v-108h335q14 0 15 -15l-2 -45h-348v-889h202q14 0 15 -12l-2 -43h-445q-2 29 -2 43z" />
<glyph unicode="&#xfb03;" horiz-adv-x="2293" d="M1812 43q0 12 14 12h144v893h-156q-2 27 -2 41.5t14 14.5h218v-949h143q14 0 14 -12l-2 -43h-385q-2 29 -2 43zM1894 1462q0 33 22.5 54.5t53.5 21.5t53.5 -21.5t22.5 -54.5q0 -29 -22.5 -50t-53.5 -21t-53.5 21t-22.5 50zM952 43q0 12 14 12h144v889h-156q-2 31 -2 45.5 t14 14.5h144v108q0 223 107.5 333.5t275.5 110.5q133 0 227 -43v-167q-25 -4 -45 -4.5t-20 18.5v106q-61 27 -158 27q-141 0 -227 -90t-86 -291v-108h335q14 0 15 -15l-2 -45h-348v-889h202q14 0 15 -12l-2 -43h-445q-2 29 -2 43zM92 43q0 12 14 12h144v889h-156 q-2 31 -2 45.5t14 14.5h144v108q0 223 107.5 333.5t275.5 110.5q133 0 227 -43v-167q-25 -4 -45 -4.5t-20 18.5v106q-61 27 -158 27q-141 0 -227 -90t-86 -291v-108h335q14 0 15 -15l-2 -45h-348v-889h202q14 0 15 -12l-2 -43h-445q-2 29 -2 43z" />
<glyph unicode="&#xfb04;" horiz-adv-x="2316" d="M1812 1528q0 18 14 18h240v-1491h143q14 0 15 -12l-2 -43h-385q-2 29 -2 43q0 12 14 12h143v1434h-178q-2 25 -2 39zM952 43q0 12 14 12h144v889h-156q-2 31 -2 45.5t14 14.5h144v108q0 223 107.5 333.5t275.5 110.5q133 0 227 -43v-167q-25 -4 -45 -4.5t-20 18.5v106 q-61 27 -158 27q-141 0 -227 -90t-86 -291v-108h335q14 0 15 -15l-2 -45h-348v-889h202q14 0 15 -12l-2 -43h-445q-2 29 -2 43zM92 43q0 12 14 12h144v889h-156q-2 31 -2 45.5t14 14.5h144v108q0 223 107.5 333.5t275.5 110.5q133 0 227 -43v-167q-25 -4 -45 -4.5t-20 18.5 v106q-61 27 -158 27q-141 0 -227 -90t-86 -291v-108h335q14 0 15 -15l-2 -45h-348v-889h202q14 0 15 -12l-2 -43h-445q-2 29 -2 43z" />
</font>
</defs>
</svg>
